<svg width="14" height="10" viewBox="0 0 14 10" xmlns="http://www.w3.org/2000/svg">
	<path fill-rule="evenodd" clip-rule="evenodd" d="M8.19564 0.299292C8.58263 -0.094735 9.21577 -0.100439 9.6098 0.286551L13.7007 4.28655C13.8922 4.47458 14 4.73166 14 5C14 5.26834 13.8922 5.52542 13.7007 5.71345L9.6098 9.71345C9.21577 10.1004 8.58263 10.0947 8.19564 9.70071C7.80865 9.30668 7.81436 8.67354 8.20838 8.28655L10.5547 6L1 6C0.447716 6 4.85396e-07 5.55229 4.37114e-07 5C3.88832e-07 4.44772 0.447716 4 1 4L10.5547 4L8.20838 1.71345C7.81436 1.32646 7.80865 0.693318 8.19564 0.299292Z" />
</svg>
