<svg width="18" height="20" viewBox="0 0 18 20" fill="none" xmlns="http://www.w3.org/2000/svg">
<path d="M13.9319 0.474708C10.6649 -0.158236 7.27225 -0.158236 4.00523 0.474708C2.56021 0.791179 0.73822 2.56342 0.424084 3.9559C-0.141361 6.67755 -0.141361 9.4625 0.424084 12.1842C0.801047 13.5766 2.62304 15.3489 4.00523 15.6653C4.06806 15.6653 4.13089 15.7286 4.13089 15.7919V19.7795C4.13089 19.9694 4.3822 20.096 4.50785 19.9061L6.39267 17.9439C6.39267 17.9439 7.90052 16.3616 8.15183 16.1084C8.15183 16.1084 8.21466 16.0451 8.27749 16.0451C10.1623 16.1084 12.1099 15.9185 13.9948 15.6021C15.4398 15.2856 17.2618 13.5133 17.5759 12.1209C18.1414 9.39921 18.1414 6.61426 17.5759 3.8926C17.199 2.56342 15.377 0.791179 13.9319 0.474708ZM13.9948 12.374C13.6806 13.007 13.3037 13.5133 12.6754 13.8298C12.4869 13.8931 12.2984 13.9564 12.1099 14.0197C11.8586 13.9564 11.6702 13.8931 11.4817 13.8298C9.4712 13.007 7.58639 11.8677 6.07854 10.222C5.26178 9.27262 4.57068 8.19662 4.00523 7.05732C3.75393 6.48767 3.50262 5.98132 3.31414 5.41167C3.12565 4.90531 3.43979 4.39896 3.75392 4.01919C4.06806 3.63943 4.44503 3.38625 4.88482 3.19636C5.19895 3.00648 5.51309 3.13307 5.7644 3.38625C6.26702 4.01919 6.76963 4.65213 7.1466 5.34837C7.39791 5.79143 7.33508 6.29779 6.89529 6.61426C6.76963 6.67755 6.7068 6.74085 6.58115 6.86744C6.51832 6.93073 6.39267 6.99402 6.32984 7.12061C6.20419 7.3105 6.20419 7.50038 6.26701 7.69026C6.76963 9.14603 7.71204 10.2853 9.15707 10.9183C9.40837 11.0449 9.59686 11.1082 9.911 11.1082C10.3508 11.0449 10.5393 10.5385 10.8534 10.2853C11.1675 10.0322 11.5445 10.0322 11.9215 10.222C12.2356 10.4119 12.5497 10.6651 12.9267 10.9183C13.2408 11.1715 13.555 11.3613 13.8691 11.6145C14.0576 11.7411 14.1204 12.0576 13.9948 12.374ZM11.356 7.62697C11.2304 7.62697 11.2932 7.62697 11.356 7.62697C11.1047 7.62697 11.0419 7.50038 10.9791 7.3105C10.9791 7.18391 10.9791 6.99403 10.9162 6.86744C10.8534 6.61426 10.7277 6.36108 10.4764 6.1712C10.3508 6.1079 10.2251 6.04461 10.0995 5.98131C9.91099 5.91802 9.78534 5.91802 9.59686 5.91802C9.40838 5.85473 9.34555 5.72814 9.34555 5.53826C9.34555 5.41167 9.53403 5.28508 9.65969 5.28508C10.6649 5.34837 11.4188 5.91802 11.5445 7.12061C11.5445 7.18391 11.5445 7.3105 11.5445 7.37379C11.5445 7.50038 11.4817 7.62697 11.356 7.62697ZM10.7277 4.84202C10.4136 4.71543 10.0995 4.58884 9.72251 4.52555C9.59686 4.52555 9.40838 4.46225 9.28272 4.46225C9.09424 4.46225 8.96859 4.33566 9.03141 4.14578C9.03141 3.9559 9.15707 3.82931 9.34555 3.8926C9.97382 3.9559 10.5393 4.08249 11.1047 4.33566C12.2356 4.90531 12.8639 5.85473 13.0524 7.12061C13.0524 7.18391 13.0524 7.2472 13.0524 7.3105C13.0524 7.43709 13.0524 7.56367 13.0524 7.75356C13.0524 7.81685 13.0524 7.88015 13.0524 7.94344C12.9895 8.19662 12.5497 8.25991 12.4869 7.94344C12.4869 7.88015 12.4241 7.75356 12.4241 7.69026C12.4241 7.12061 12.2984 6.55096 12.0471 6.04461C11.6702 5.47496 11.2304 5.09519 10.7277 4.84202ZM14.1204 8.63968C13.9319 8.63968 13.8063 8.4498 13.8063 8.25991C13.8063 7.88015 13.7435 7.50038 13.6806 7.12061C13.4293 5.09519 11.7958 3.44954 9.84817 3.13307C9.53403 3.06978 9.2199 3.06978 8.96859 3.00648C8.78011 3.00648 8.52879 3.00648 8.46597 2.7533C8.40314 2.56342 8.59162 2.37354 8.7801 2.37354C8.84293 2.37354 8.90576 2.37354 8.90576 2.37354C11.4817 2.43683 9.03141 2.37354 8.90576 2.37354C11.5445 2.43683 13.7435 4.20907 14.1832 6.86744C14.2461 7.3105 14.3089 7.75356 14.3089 8.25991C14.4346 8.4498 14.3089 8.63968 14.1204 8.63968Z" fill="white"/>
</svg>
