<svg width="64" height="64" viewBox="0 0 64 64" fill="none" xmlns="http://www.w3.org/2000/svg">
<path d="M27 3.88675C30.094 2.10042 33.906 2.10042 37 3.88675L53.8468 13.6132C56.9408 15.3996 58.8468 18.7008 58.8468 22.2735V41.7265C58.8468 45.2992 56.9408 48.6004 53.8468 50.3868L37 60.1133C33.906 61.8996 30.094 61.8996 27 60.1132L10.1532 50.3867C7.0592 48.6004 5.15321 45.2992 5.15321 41.7265V22.2735C5.15321 18.7008 7.0592 15.3996 10.1532 13.6132L27 3.88675Z" fill="#EDEDED"/>
<path d="M54 13H43V10C42.9979 8.14414 42.2597 6.36491 40.9474 5.05262C39.6351 3.74033 37.8559 3.00214 36 3H28C26.1441 3.00214 24.3649 3.74033 23.0526 5.05262C21.7403 6.36491 21.0021 8.14414 21 10V13H10C8.14414 13.0021 6.36491 13.7403 5.05262 15.0526C3.74033 16.3649 3.00214 18.1441 3 20V24C3 24.2652 3.10536 24.5196 3.29289 24.7071C3.48043 24.8946 3.73478 25 4 25H13V27C13 27.2652 13.1054 27.5196 13.2929 27.7071C13.4804 27.8946 13.7348 28 14 28H22C22.2652 28 22.5196 27.8946 22.7071 27.7071C22.8946 27.5196 23 27.2652 23 27V25H35.999C36.2642 25 36.5186 24.8946 36.7061 24.7071C36.8936 24.5196 36.999 24.2652 36.999 24C36.999 23.7348 36.8936 23.4804 36.7061 23.2929C36.5186 23.1054 36.2642 23 35.999 23H23V21C23 20.7348 22.8946 20.4804 22.7071 20.2929C22.5196 20.1054 22.2652 20 22 20H14C13.7348 20 13.4804 20.1054 13.2929 20.2929C13.1054 20.4804 13 20.7348 13 21V23H5V20C5.00156 18.6744 5.52885 17.4035 6.46619 16.4662C7.40353 15.5288 8.6744 15.0016 10 15H54C55.3256 15.0016 56.5965 15.5288 57.5338 16.4662C58.4712 17.4035 58.9984 18.6744 59 20V23H51V21C51 20.7348 50.8946 20.4804 50.7071 20.2929C50.5196 20.1054 50.2652 20 50 20H42C41.7348 20 41.4804 20.1054 41.2929 20.2929C41.1054 20.4804 41 20.7348 41 21V27C41 27.2652 41.1054 27.5196 41.2929 27.7071C41.4804 27.8946 41.7348 28 42 28H50C50.2652 28 50.5196 27.8946 50.7071 27.7071C50.8946 27.5196 51 27.2652 51 27V25H59V54C58.9984 55.3256 58.4712 56.5965 57.5338 57.5338C56.5965 58.4712 55.3256 58.9984 54 59H51C50.7348 59 50.4804 59.1054 50.2929 59.2929C50.1054 59.4804 50 59.7348 50 60C50 60.2652 50.1054 60.5196 50.2929 60.7071C50.4804 60.8946 50.7348 61 51 61H54C55.8559 60.9979 57.6351 60.2597 58.9474 58.9474C60.2597 57.6351 60.9979 55.8559 61 54V20C60.9979 18.1441 60.2597 16.3649 58.9474 15.0526C57.6351 13.7403 55.8559 13.0021 54 13ZM15 22H21V26H15V22ZM23 13V10C23.0016 8.6744 23.5288 7.40353 24.4662 6.46619C25.4035 5.52885 26.6744 5.00156 28 5H36C37.3256 5.00156 38.5965 5.52885 39.5338 6.46619C40.4712 7.40353 40.9984 8.6744 41 10V13H23ZM49 26H43V22H49V26Z" fill="#DE3C4F"/>
<path d="M10 61H45C45.2652 61 45.5196 60.8946 45.7071 60.7071C45.8946 60.5196 46 60.2652 46 60C46 59.7348 45.8946 59.4804 45.7071 59.2929C45.5196 59.1054 45.2652 59 45 59H10C8.6744 58.9984 7.40353 58.4712 6.46619 57.5338C5.52885 56.5965 5.00156 55.3256 5 54V30C5 29.7348 4.89464 29.4804 4.70711 29.2929C4.51957 29.1054 4.26522 29 4 29C3.73478 29 3.48043 29.1054 3.29289 29.2929C3.10536 29.4804 3 29.7348 3 30V54C3.00214 55.8559 3.74033 57.6351 5.05262 58.9474C6.36491 60.2597 8.14414 60.9979 10 61Z" fill="#DE3C4F"/>
<path d="M35 31H29C28.7348 31 28.4804 31.1054 28.2929 31.2929C28.1054 31.4804 28 31.7348 28 32V37H23C22.7348 37 22.4804 37.1054 22.2929 37.2929C22.1054 37.4804 22 37.7348 22 38V44C22 44.2652 22.1054 44.5196 22.2929 44.7071C22.4804 44.8946 22.7348 45 23 45H28V50C28 50.2652 28.1054 50.5196 28.2929 50.7071C28.4804 50.8946 28.7348 51 29 51H35C35.2652 51 35.5196 50.8946 35.7071 50.7071C35.8946 50.5196 36 50.2652 36 50V45H41C41.2652 45 41.5196 44.8946 41.7071 44.7071C41.8946 44.5196 42 44.2652 42 44V38C42 37.7348 41.8946 37.4804 41.7071 37.2929C41.5196 37.1054 41.2652 37 41 37H36V32C36 31.7348 35.8946 31.4804 35.7071 31.2929C35.5196 31.1054 35.2652 31 35 31ZM40 39V43H35C34.7348 43 34.4804 43.1054 34.2929 43.2929C34.1054 43.4804 34 43.7348 34 44V49H30V44C30 43.7348 29.8946 43.4804 29.7071 43.2929C29.5196 43.1054 29.2652 43 29 43H24V39H29C29.2652 39 29.5196 38.8946 29.7071 38.7071C29.8946 38.5196 30 38.2652 30 38V33H34V38C34 38.2652 34.1054 38.5196 34.2929 38.7071C34.4804 38.8946 34.7348 39 35 39H40Z" fill="#91297B"/>
</svg>
