<svg width="64" height="64" viewBox="0 0 64 64" fill="none" xmlns="http://www.w3.org/2000/svg">
<path d="M27 3.88675C30.094 2.10042 33.906 2.10042 37 3.88675L53.8468 13.6132C56.9408 15.3996 58.8468 18.7008 58.8468 22.2735V41.7265C58.8468 45.2992 56.9408 48.6004 53.8468 50.3868L37 60.1133C33.906 61.8996 30.094 61.8996 27 60.1132L10.1532 50.3867C7.0592 48.6004 5.15321 45.2992 5.15321 41.7265V22.2735C5.15321 18.7008 7.0592 15.3996 10.1532 13.6132L27 3.88675Z" fill="#EDEDED"/>
<path d="M50.9728 48.1744C46.4935 44.8116 41.2563 42.6988 35.7573 42.025L37.7513 36.9927C37.8765 36.6768 38.124 36.4273 38.4308 36.3077C41.8698 34.9659 44.8086 32.6226 46.9302 29.5313C49.101 26.3678 50.2483 22.6461 50.2483 18.7692C50.2483 13.7814 48.3547 9.08512 44.9161 5.54606C41.479 2.00848 36.9012 0.0392431 32.0253 0.00066897C27.5145 -0.0383934 23.1551 1.63445 19.7519 4.70036C19.372 5.04265 19.3352 5.63542 19.6707 6.0236C20.0057 6.41178 20.5853 6.44938 20.9652 6.1071C24.0291 3.34685 27.9517 1.84148 32.011 1.87566C36.3995 1.91033 40.5204 3.68279 43.614 6.86686C46.709 10.0529 48.4134 14.2799 48.4134 18.7692C48.4134 22.2589 47.3813 25.608 45.4279 28.4547C43.5174 31.2384 40.8716 33.3482 37.7762 34.5562C36.9954 34.8604 36.3665 35.4923 36.0507 36.2891L33.455 42.8384C33.4517 42.8467 33.4483 42.8555 33.445 42.8643C33.444 42.8668 33.4431 42.8692 33.4421 42.8716L32.463 45.3414C32.3197 45.7037 32.0086 45.7422 31.881 45.7422C31.7539 45.7422 31.4424 45.7032 31.299 45.3414L30.1718 42.4966C30.167 42.4849 30.1627 42.4727 30.1574 42.461L27.7118 36.2896C27.3955 35.4918 26.7695 34.8609 25.9935 34.5587C19.469 32.0172 15.1928 25.5118 15.3529 18.3722C15.4313 14.8815 16.5532 11.55 18.5979 8.73746C18.8999 8.32145 18.8149 7.73453 18.4082 7.42594C18.0016 7.11686 17.4267 7.20377 17.1247 7.6193C14.8526 10.7453 13.6054 14.4489 13.5185 18.3292C13.3407 26.2608 18.0914 33.4869 25.3398 36.3106C25.6409 36.4283 25.8855 36.6768 26.0112 36.9937L28.0047 42.0245C25.4469 42.3375 22.9363 42.9625 20.5246 43.8887C20.0506 44.0709 19.8102 44.6114 19.9884 45.0962C20.127 45.4722 20.4763 45.7042 20.8476 45.7042C20.9546 45.7042 21.0641 45.6846 21.1702 45.6441C22.8072 45.0152 24.4931 44.5337 26.209 44.2032C23.9751 46.2027 22.0202 49.3711 20.4911 53.4366H16.9279C18.0193 51.9898 18.6534 50.189 18.6534 48.2969C18.6534 43.6915 14.9873 39.9161 10.4813 39.8809C10.4598 39.8804 10.4388 39.8804 10.4177 39.8804C5.97235 39.8804 2.28436 43.5543 2.18258 48.0997C2.10278 51.6494 4.22536 54.8843 7.46513 56.1558L8.96556 59.9414C9.20639 60.5483 9.77598 60.9409 10.4168 60.9409C11.0576 60.9409 11.6271 60.5483 11.868 59.9414L13.3679 56.1558C13.9361 55.9331 14.4703 55.6485 14.9649 55.3115H19.837C19.1637 57.3941 18.5941 59.6753 18.1445 62.125H4.05859C4.59043 60.9058 5.20493 59.7114 5.88921 58.5679C6.15345 58.126 6.01727 57.5488 5.58482 57.2788C5.15237 57.0088 4.58756 57.148 4.32331 57.5899C3.47849 59.0029 2.73353 60.4878 2.10899 62.0068C1.92693 62.4521 1.97519 62.958 2.23705 63.3594C2.49891 63.7607 2.93661 64 3.40824 64H60.3543C60.8264 64 61.2645 63.7598 61.5264 63.3574C61.7878 62.9551 61.8346 62.4492 61.6511 62.0044C59.3895 56.5029 55.6967 51.7202 50.9728 48.1744ZM12.6994 54.4097C12.234 54.5908 11.8594 54.9668 11.6716 55.4409L10.4168 58.6079L9.16148 55.4409C8.97368 54.9663 8.60001 54.5908 8.13698 54.4107C5.61062 53.4263 3.9549 50.9077 4.01702 48.1426C4.09634 44.6099 6.96244 41.7554 10.4177 41.7554H10.4674C13.9691 41.7828 16.8184 44.7173 16.8184 48.2964C16.8184 50.9917 15.1632 53.4483 12.6994 54.4097ZM28.9772 44.4776L29.5984 46.0455C29.9768 47.0005 30.8728 47.6172 31.881 47.6172C32.8893 47.6172 33.7852 47.0005 34.1637 46.0455L34.7844 44.4795C36.2399 45.3086 37.6586 46.7681 38.9292 48.753C39.105 49.0284 39.3984 49.1778 39.6976 49.1778C39.8696 49.1778 40.044 49.128 40.1988 49.0245C40.6231 48.7412 40.7417 48.1602 40.4645 47.7266C39.5518 46.3008 38.5794 45.1241 37.5544 44.2042C42.0003 45.0616 46.2134 46.9278 49.8861 49.6851C51.3847 50.8101 52.7728 52.0664 54.0367 53.4361H43.2589C42.9555 52.6304 42.6349 51.8579 42.2989 51.125C42.0844 50.6558 41.5377 50.4541 41.079 50.6734C40.6203 50.8931 40.4225 51.4512 40.6375 51.92C40.8606 52.4077 41.0771 52.9136 41.2854 53.4366H22.4718C24.2207 49.0528 26.4819 45.8887 28.9772 44.4776ZM20.0128 62.125C20.4801 59.6631 21.0775 57.377 21.7804 55.3111H41.9774C42.6889 57.3999 43.2876 59.6987 43.7497 62.125H20.0128ZM45.6176 62.125C45.1746 59.7178 44.5993 57.4219 43.9145 55.3111H55.6341C57.2664 57.3892 58.6364 59.6777 59.703 62.125H45.6176Z" fill="#DE3C4F"/>
<path d="M24.2886 29.9367H39.4744C40.4292 29.9367 41.2066 29.1423 41.2066 28.1667V18.0256C41.9067 17.2741 42.3367 16.258 42.3367 15.1413V12.5207C42.3367 12.5178 42.3367 12.5144 42.3367 12.5115C42.3367 12.508 42.3367 12.5046 42.3362 12.5012C42.3362 12.4929 42.3358 12.4841 42.3358 12.4763C42.3358 12.4758 42.3358 12.4748 42.3358 12.4743C42.3281 12.3205 42.2846 12.1765 42.2134 12.051L39.7502 7.48657C39.3889 6.81811 38.7003 6.40259 37.953 6.40259H34.1537C34.1451 6.4021 34.1374 6.4021 34.1288 6.4021H29.6333C29.6251 6.4021 29.617 6.4021 29.6089 6.40259H25.8096C25.0622 6.40259 24.3736 6.81811 24.0124 7.48657L21.5486 12.0515C21.4731 12.1843 21.4292 12.3381 21.4258 12.5022V12.509C21.4258 12.5129 21.4254 12.5168 21.4254 12.5207V15.1413C21.4254 16.2585 21.8559 17.2746 22.5564 18.0261V28.1667C22.5564 29.1423 23.3334 29.9367 24.2886 29.9367ZM33.3647 8.27709L33.9592 11.5832H29.8034L30.3973 8.27709H33.3647ZM40.5018 15.1413C40.5018 16.4152 39.4869 17.4524 38.2397 17.4524C36.9925 17.4524 35.9781 16.4152 35.9781 15.1413V13.4582H40.5018V15.1413ZM29.6194 13.4587H34.1431V15.1413C34.1431 16.4157 33.1282 17.4524 31.881 17.4524C30.6339 17.4524 29.6189 16.4157 29.6189 15.1413V13.4587H29.6194ZM27.7845 13.4587V15.1413C27.7845 16.4157 26.7696 17.4524 25.5224 17.4524C24.2752 17.4524 23.2603 16.4157 23.2603 15.1413V13.4587H27.7845ZM33.7757 28.0617H29.9869V22.1618H33.7757V28.0617ZM35.6106 28.0617V21.4499C35.6106 20.8083 35.0998 20.2868 34.4724 20.2868H29.2897C28.6623 20.2868 28.152 20.8083 28.152 21.4499V28.0617H24.3913V19.1652C24.7507 19.2707 25.1301 19.3273 25.5224 19.3273C26.804 19.3273 27.9498 18.7229 28.7019 17.7785C29.4536 18.7229 30.5995 19.3273 31.881 19.3273C33.1626 19.3273 34.3085 18.7229 35.0606 17.7785C35.8123 18.7229 36.9581 19.3273 38.2397 19.3273C38.6325 19.3273 39.0119 19.2707 39.3717 19.1648V28.0617H35.6106ZM38.1432 8.39233L39.8658 11.5832H35.8247L35.2302 8.27758H37.953C38.0323 8.27709 38.1049 8.32104 38.1432 8.39233ZM25.6189 8.39233C25.6571 8.32104 25.7302 8.27709 25.8091 8.27709H28.5318L27.9379 11.5832H23.8968L25.6189 8.39233Z" fill="#91297B"/>
<path d="M53.7634 38.3686C55.4392 38.3686 56.803 36.9751 56.803 35.2627C56.803 33.5498 55.4397 32.1562 53.7634 32.1562C52.0872 32.1562 50.7234 33.5498 50.7234 35.2627C50.7234 36.9751 52.0872 38.3686 53.7634 38.3686ZM53.7634 34.0317C54.4276 34.0317 54.9681 34.584 54.9681 35.2627C54.9681 35.9414 54.4276 36.4936 53.7634 36.4936C53.0987 36.4936 52.5583 35.9414 52.5583 35.2627C52.5588 34.5835 53.0992 34.0317 53.7634 34.0317Z" fill="#91297B"/>
<path d="M48.876 29.6259C49.1632 30.0526 49.7342 30.1605 50.1519 29.8676C51.2366 29.1058 52.5038 28.7098 53.8141 28.7191C57.3162 28.7465 60.1651 31.681 60.1651 35.2601C60.1651 37.9554 58.5098 40.412 56.0465 41.3729C55.5811 41.554 55.2065 41.93 55.0187 42.4041L53.7634 45.5716L52.5086 42.4041C52.3203 41.93 51.9466 41.5545 51.4836 41.3744C48.9573 40.39 47.3015 37.871 47.3637 35.1058C47.3852 34.1532 47.6045 33.2382 48.0159 32.3856C48.2405 31.9213 48.0537 31.3593 47.5997 31.1303C47.1448 30.9012 46.5948 31.0917 46.3707 31.556C45.8398 32.6551 45.5569 33.8348 45.5292 35.0629C45.4494 38.6126 47.5715 41.8475 50.8122 43.119L52.3122 46.9046C52.553 47.512 53.1226 47.9041 53.7634 47.9041C54.4042 47.9041 54.9743 47.512 55.2146 46.9046L56.715 43.119C59.8769 41.8783 62 38.722 62 35.2601C62 30.6547 58.334 26.8793 53.8279 26.8441C52.1378 26.8344 50.5083 27.3422 49.1126 28.3222C48.6949 28.6156 48.5893 29.1996 48.876 29.6259Z" fill="#DE3C4F"/>
<path d="M10.4167 45.1929C8.74047 45.1929 7.37671 46.5864 7.37671 48.2988C7.37671 50.0117 8.74047 51.4048 10.4167 51.4048C12.0925 51.4048 13.4563 50.0117 13.4563 48.2988C13.4563 46.5864 12.0925 45.1929 10.4167 45.1929ZM10.4167 49.5298C9.75207 49.5298 9.21163 48.9775 9.21163 48.2988C9.21163 47.6201 9.75207 47.0679 10.4167 47.0679C11.081 47.0679 11.6214 47.6201 11.6214 48.2988C11.6214 48.9775 11.081 49.5298 10.4167 49.5298Z" fill="#91297B"/>
</svg>
