<svg width="64" height="64" viewBox="0 0 64 64" fill="none" xmlns="http://www.w3.org/2000/svg">
<path d="M27 3.88675C30.094 2.10042 33.906 2.10042 37 3.88675L53.8468 13.6132C56.9408 15.3996 58.8468 18.7008 58.8468 22.2735V41.7265C58.8468 45.2992 56.9408 48.6004 53.8468 50.3868L37 60.1133C33.906 61.8996 30.094 61.8996 27 60.1132L10.1532 50.3867C7.0592 48.6004 5.15321 45.2992 5.15321 41.7265V22.2735C5.15321 18.7008 7.0592 15.3996 10.1532 13.6132L27 3.88675Z" fill="#EDEDED"/>
<path d="M22.8561 33.6286C23.176 33.6286 23.4959 33.5066 23.7399 33.2625C24.2282 32.7743 24.2282 31.9829 23.74 31.4947L23.1515 30.9061C22.6636 30.4181 21.8719 30.4179 21.3837 30.9061C20.8954 31.3943 20.8954 32.1857 21.3835 32.674L21.9721 33.2625C22.2162 33.5066 22.5361 33.6286 22.8561 33.6286Z" fill="#DE3C4F"/>
<path d="M28.5088 36.2635L27.7736 35.5282C27.2854 35.0401 26.494 35.0401 26.0057 35.5282C25.5175 36.0164 25.5175 36.8079 26.0056 37.296L26.7409 38.0313C26.985 38.2755 27.3049 38.3975 27.6248 38.3975C27.9447 38.3975 28.2646 38.2753 28.5086 38.0313C28.997 37.5432 28.997 36.7516 28.5088 36.2635Z" fill="#DE3C4F"/>
<path d="M30.6565 40.1793C30.1684 40.6675 30.1684 41.459 30.6565 41.9472L31.4807 42.7711C31.7247 43.0152 32.0446 43.1372 32.3645 43.1372C32.6844 43.1372 33.0044 43.0151 33.2484 42.7711C33.7365 42.2829 33.7365 41.4914 33.2484 41.0033L32.4242 40.1793C31.9362 39.6912 31.1445 39.6912 30.6565 40.1793Z" fill="#DE3C4F"/>
<path d="M62.3137 17.0468L58.1808 12.914C57.9463 12.6796 57.6284 12.5479 57.2968 12.5479C56.9653 12.5479 56.6473 12.6796 56.4129 12.914C55.7045 13.6224 54.7626 14.0127 53.7606 14.0127C52.7587 14.0127 51.8166 13.6224 51.1082 12.914C49.6458 11.4514 49.6458 9.07171 51.1082 7.60915C51.5964 7.12101 51.5964 6.32948 51.1082 5.84133L46.9531 1.68616C44.7047 -0.562054 41.0461 -0.562054 38.7977 1.68616L17.6478 22.8363C17.4135 23.0707 17.2817 23.3886 17.2817 23.7201L17.2816 26.8043H14.1975C13.8659 26.8043 13.5481 26.9361 13.3135 27.1705L1.68907 38.7949C0.5999 39.8841 0 41.3322 0 42.8726C0 44.413 0.5999 45.8611 1.68907 46.9503L5.84424 51.1056C6.33251 51.5938 7.12379 51.5938 7.61219 51.1056C8.32059 50.3972 9.26263 50.0069 10.2645 50.0069C11.2666 50.0069 12.2085 50.397 12.9169 51.1056C13.6254 51.814 14.0156 52.756 14.0156 53.7579C14.0156 54.7598 13.6254 55.7017 12.9169 56.4103C12.6825 56.6447 12.5508 56.9627 12.5508 57.2942C12.5508 57.6257 12.6825 57.9437 12.9169 58.1781L17.0498 62.3109C18.1741 63.4351 19.6508 63.9972 21.1275 63.9972C22.6042 63.9972 24.081 63.4351 25.2052 62.3109L36.8296 50.6864C37.064 50.452 37.1958 50.134 37.1958 49.8025V46.7184H40.2799C40.6114 46.7184 40.9293 46.5866 41.1638 46.3522L48.7225 38.7936C49.2106 38.3054 49.2106 37.5139 48.7225 37.0257C48.2342 36.5376 47.4429 36.5376 46.9546 37.0257L39.762 44.2183H35.9457C35.2554 44.2183 34.6957 44.7779 34.6957 45.4683V49.2847L23.4373 60.5431C22.1639 61.8166 20.0913 61.8167 18.8178 60.5431L15.481 57.2064C16.1544 56.1924 16.5158 55.003 16.5158 53.758C16.5158 52.0883 15.8657 50.5185 14.685 49.3379C13.5043 48.1572 11.9345 47.5069 10.2648 47.5069C9.01987 47.5069 7.83032 47.8684 6.8164 48.5417L3.45727 45.1824C2.18371 43.9089 2.18371 41.8364 3.45727 40.5629L14.7156 29.3045H18.5319C19.2222 29.3045 19.7819 28.7449 19.7819 28.0545L19.7821 24.238L40.5657 3.45411C41.8392 2.18043 43.9117 2.18056 45.1852 3.45411L48.5454 6.81425C46.9407 9.2401 47.2058 12.5472 49.3404 14.6819C50.5211 15.8626 52.091 16.5128 53.7606 16.5128C55.0056 16.5128 56.1951 16.1513 57.209 15.478L60.5457 18.8146C61.8193 20.0883 61.8193 22.1607 60.5457 23.4343L54.9069 29.0732C54.4187 29.5613 54.4187 30.3528 54.9069 30.8411C55.3951 31.3293 56.1864 31.3294 56.6748 30.8411L62.3137 25.2022C64.562 22.9538 64.5621 19.2954 62.3137 17.0468Z" fill="#DE3C4F"/>
<path d="M37.6141 16.4405C36.9491 16.6256 36.5599 17.3149 36.7451 17.9799L40.8002 32.5494C40.9541 33.1024 41.4565 33.4646 42.0038 33.4646C42.1148 33.4646 42.2277 33.4497 42.3398 33.4184C43.0048 33.2333 43.394 32.544 43.2088 31.879L39.1537 17.3095C38.9685 16.6445 38.2794 16.2557 37.6141 16.4405Z" fill="#DE3C4F"/>
<path d="M44.618 21.099C43.1559 22.5613 43.1557 24.9407 44.618 26.4033C45.3493 27.1344 46.3096 27.4999 47.2702 27.4999C48.2307 27.4999 49.191 27.1343 49.9223 26.4031C51.3846 24.9407 51.3845 22.5613 49.9223 21.099C49.2139 20.3906 48.2721 20.0005 47.2702 20.0005C46.2682 20.0005 45.3265 20.3906 44.618 21.099ZM48.1543 24.6353C47.6668 25.123 46.8735 25.1228 46.386 24.6353C45.8985 24.1478 45.8985 23.3544 46.386 22.8669C46.6223 22.6307 46.9361 22.5006 47.2702 22.5006C47.6042 22.5006 47.9182 22.6307 48.1543 22.8669C48.6418 23.3544 48.6418 24.1478 48.1543 24.6353Z" fill="#91297B"/>
<path d="M35.44 21.5387C34.7316 20.8303 33.7898 20.4402 32.7879 20.4402C31.7859 20.4402 30.8442 20.8303 30.1357 21.5387C28.6736 23.001 28.6734 25.3804 30.1357 26.843C30.867 27.5741 31.8273 27.9396 32.7879 27.9396C33.7484 27.9396 34.7087 27.574 35.44 26.8428C36.9023 25.3804 36.9022 23.0009 35.44 21.5387ZM33.672 25.0749C33.1845 25.5625 32.3912 25.5624 31.9037 25.0749C31.4162 24.5874 31.4162 23.7939 31.9037 23.3064C32.14 23.0703 32.4538 22.9402 32.7879 22.9402C33.1219 22.9402 33.4359 23.0703 33.672 23.3064C34.1597 23.7941 34.1597 24.5874 33.672 25.0749Z" fill="#91297B"/>
<path d="M19.6152 36.6049C19.1271 36.1167 18.3358 36.1167 17.8472 36.6049L13.6037 40.8484C13.1155 41.3366 13.1155 42.1281 13.6037 42.6163C13.8478 42.8604 14.1677 42.9824 14.4876 42.9824C14.8075 42.9824 15.1273 42.8603 15.3715 42.6163L19.615 38.3727C20.1033 37.8846 20.1033 37.093 19.6152 36.6049Z" fill="#91297B"/>
<path d="M18.3776 46.8723C18.6975 46.8723 19.0174 46.7502 19.2616 46.5062L23.5051 42.2626C23.9933 41.7745 23.9933 40.9829 23.5051 40.4948C23.0171 40.0066 22.2258 40.0066 21.7372 40.4948L17.4936 44.7383C17.0055 45.2265 17.0055 46.018 17.4936 46.5062C17.7377 46.7503 18.0576 46.8723 18.3776 46.8723Z" fill="#DE3C4F"/>
<path d="M22.2675 50.7622C22.5875 50.7622 22.9073 50.6401 23.1514 50.3961L27.3948 46.1525C27.883 45.6643 27.883 44.8728 27.3948 44.3847C26.9065 43.8965 26.1153 43.8965 25.6269 44.3847L21.3834 48.6282C20.8953 49.1164 20.8953 49.9079 21.3834 50.3961C21.6277 50.6402 21.9475 50.7622 22.2675 50.7622Z" fill="#91297B"/>
<path d="M51.8136 32.6848C51.4848 32.6848 51.1623 32.8186 50.9298 33.0511C50.6961 33.2836 50.5636 33.6061 50.5636 33.9348C50.5636 34.2636 50.6961 34.5861 50.9298 34.8186C51.1623 35.0511 51.4848 35.1848 51.8136 35.1848C52.1423 35.1848 52.4648 35.0511 52.6972 34.8186C52.9297 34.5861 53.0636 34.2636 53.0636 33.9348C53.0636 33.6061 52.9298 33.2836 52.6972 33.0511C52.4648 32.8186 52.1423 32.6848 51.8136 32.6848Z" fill="#DE3C4F"/>
</svg>
