<svg width="64" height="64" viewBox="0 0 64 64" fill="none" xmlns="http://www.w3.org/2000/svg">
<path d="M27 3.88675C30.094 2.10042 33.906 2.10042 37 3.88675L53.8468 13.6132C56.9408 15.3996 58.8468 18.7008 58.8468 22.2735V41.7265C58.8468 45.2992 56.9408 48.6004 53.8468 50.3868L37 60.1133C33.906 61.8996 30.094 61.8996 27 60.1132L10.1532 50.3867C7.0592 48.6004 5.15321 45.2992 5.15321 41.7265V22.2735C5.15321 18.7008 7.0592 15.3996 10.1532 13.6132L27 3.88675Z" fill="#EDEDED"/>
<path d="M62.771 34.931L63.492 30.604L62.192 30.975C62.854 29.9 63.246 28.65 63.246 27.315V24.82L59.412 25.459C59.356 25.468 59.302 25.487 59.246 25.498V4C59.246 2.346 57.9 1 56.246 1H8.246C6.592 1 5.246 2.346 5.246 4V25.497C5.19 25.486 5.136 25.467 5.08 25.458L1.246 24.82V27.316C1.246 28.651 1.638 29.901 2.3 30.976L1 30.605L1.721 34.932C1.916 36.103 2.448 37.161 3.218 38H1.025L1.416 39.947C1.894 42.338 3.318 44.389 5.318 45.697L3.579 47L6.862 49.462C7.651 50.054 8.559 50.465 9.51 50.718C9.355 50.931 9.195 51.141 9.058 51.37L7.746 53.555L10.828 54.583C11.662 54.859 12.529 55 13.406 55C16.579 55 19.391 53.184 20.74 50.35C20.944 50.41 21.151 50.459 21.358 50.511C21.292 50.999 21.246 51.494 21.246 52C21.246 58.065 26.181 63 32.246 63C38.311 63 43.246 58.065 43.246 52C43.246 51.494 43.2 50.999 43.133 50.511C43.34 50.459 43.547 50.41 43.751 50.351C45.099 53.184 47.912 55 51.086 55C51.963 55 52.83 54.859 53.663 54.582L56.745 53.554L55.433 51.37C55.296 51.142 55.137 50.931 54.981 50.718C55.932 50.465 56.84 50.054 57.628 49.462L60.913 47L59.175 45.696C61.174 44.388 62.599 42.338 63.077 39.946L63.467 38H61.274C62.044 37.161 62.576 36.103 62.771 34.931ZM17.246 46.49V46.285C17.246 42.791 19.379 39.645 22.542 38.307L23.002 40.148C23.164 40.797 23.246 41.468 23.246 42.144C23.246 44.49 22.153 46.679 20.318 48.11C19.216 47.697 18.189 47.147 17.246 46.49ZM15.957 30.248C15.613 33.003 13.829 35.374 11.337 36.518C11.283 36.017 11.246 35.513 11.246 35V32.266C12.242 30.429 14.05 29.227 16.109 29.029L15.957 30.248ZM15.246 23.292C15.246 25.198 14.187 26.912 12.482 27.764L11.246 28.382V26.517C11.246 25.68 11.444 24.841 11.819 24.091C12.511 22.707 13.756 21.688 15.246 21.283V23.292ZM6.856 34.357C7.914 34.66 8.801 35.394 9.307 36.371C9.371 37.121 9.499 37.854 9.663 38.574L6.669 37.825C5.123 37.439 3.955 36.174 3.693 34.602L3.492 33.396L6.856 34.357ZM12.251 40.187C12.892 38.06 14.572 36.376 16.722 35.762L18.246 35.326V38.496C18.246 38.64 18.231 38.783 18.22 38.926C16.676 40.543 15.647 42.629 15.346 44.901C14.011 43.564 12.958 41.96 12.251 40.187ZM24.942 39.663L23.965 35.754L22.97 36.039C21.991 36.319 21.08 36.742 20.245 37.268V32.674L16.993 33.603C17.465 32.634 17.803 31.593 17.94 30.495L18.379 27H16.718C16.53 27 16.347 27.026 16.162 27.039C16.856 25.942 17.246 24.653 17.246 23.292V18.719L14.871 19.313C13.463 19.665 12.214 20.422 11.246 21.461V12.92C14.305 12.479 16.725 10.059 17.166 7H47.326C47.767 10.059 50.187 12.479 53.246 12.92V21.461C52.278 20.422 51.029 19.665 49.621 19.313L47.246 18.719V23.292C47.246 24.653 47.636 25.942 48.331 27.039C48.145 27.026 47.963 27 47.774 27H46.113L46.551 30.496C46.688 31.594 47.026 32.635 47.498 33.604L44.246 32.674V37.268C43.412 36.741 42.501 36.319 41.521 36.039L40.526 35.754L39.548 39.665C39.348 40.471 39.246 41.305 39.246 42.144C39.246 42.651 39.3 43.149 39.378 43.642C37.455 41.999 34.967 41 32.246 41C29.525 41 27.037 41.999 25.114 43.641C25.192 43.149 25.246 42.651 25.246 42.144C25.246 41.305 25.144 40.471 24.942 39.663ZM11.246 10.899V7H15.145C14.746 8.956 13.202 10.5 11.246 10.899ZM53.246 32.266V35C53.246 35.513 53.209 36.017 53.155 36.517C50.663 35.373 48.879 33.002 48.535 30.247L48.383 29.029C50.442 29.227 52.25 30.429 53.246 32.266ZM54.829 38.573C54.994 37.853 55.121 37.12 55.185 36.37C55.69 35.393 56.577 34.659 57.636 34.356L61 33.395L60.799 34.601C60.537 36.173 59.369 37.437 57.823 37.824L54.829 38.573ZM53.246 28.382L52.01 27.764C50.305 26.912 49.246 25.198 49.246 23.292V21.282C50.736 21.687 51.98 22.706 52.673 24.09C53.048 24.84 53.246 25.679 53.246 26.517V28.382ZM53.246 10.899C51.29 10.5 49.746 8.956 49.347 7H53.246V10.899ZM44.174 48.109C42.339 46.679 41.246 44.49 41.246 42.144C41.246 41.469 41.328 40.797 41.489 40.15L41.95 38.308C45.113 39.645 47.246 42.791 47.246 46.285V46.49C46.303 47.147 45.276 47.697 44.174 48.109ZM49.146 44.901C48.845 42.629 47.816 40.543 46.272 38.926C46.261 38.783 46.246 38.64 46.246 38.496V35.326L47.77 35.762C49.919 36.376 51.599 38.06 52.241 40.187C51.534 41.96 50.481 43.564 49.146 44.901ZM59.74 27.431L61.246 27.18V27.315C61.246 29.613 59.688 31.608 57.459 32.166L55.246 32.719V32.193L55.921 30.506C56.565 28.895 58.028 27.717 59.74 27.431ZM7.246 4C7.246 3.449 7.694 3 8.246 3H56.246C56.798 3 57.246 3.449 57.246 4V26.219C56.485 26.632 55.808 27.18 55.246 27.838V5H9.246V27.838C8.684 27.18 8.007 26.632 7.246 26.219V4ZM3.246 27.18L4.752 27.431C6.464 27.717 7.927 28.895 8.571 30.506L9.246 32.193V32.719L7.033 32.166C4.804 31.608 3.246 29.614 3.246 27.315V27.18ZM3.481 40H5.521C7.106 40 8.64 40.465 9.959 41.344L10.822 41.92C11.001 42.294 11.191 42.662 11.398 43.02C9.85 42.994 8.294 43.465 7.047 44.4C5.292 43.499 3.994 41.91 3.481 40ZM6.913 47L8.247 46C9.6 44.983 11.465 44.739 13.042 45.345C13.612 46.018 14.234 46.645 14.909 47.217C13.543 47.511 12.266 48.113 11.178 48.976C10.057 48.916 8.961 48.537 8.062 47.862L6.913 47ZM13.406 53C12.744 53 12.09 52.894 11.462 52.685L10.745 52.446L10.773 52.399C12.031 50.302 14.331 49 16.775 49H17.513C17.949 49.241 18.397 49.46 18.858 49.661C17.81 51.701 15.737 53 13.406 53ZM32.246 61C27.283 61 23.246 56.962 23.246 52C23.246 47.038 27.283 43 32.246 43C37.209 43 41.246 47.038 41.246 52C41.246 56.962 37.209 61 32.246 61ZM53.03 52.685C52.402 52.894 51.748 53 51.086 53C48.755 53 46.682 51.701 45.634 49.661C46.095 49.46 46.544 49.241 46.979 49H47.717C50.161 49 52.461 50.302 53.719 52.399L53.747 52.446L53.03 52.685ZM56.429 47.862C55.531 48.536 54.435 48.915 53.314 48.975C52.226 48.111 50.949 47.509 49.583 47.216C50.257 46.644 50.88 46.017 51.45 45.344C53.027 44.74 54.891 44.983 56.246 46L57.579 47L56.429 47.862ZM57.445 44.399C56.198 43.464 54.642 42.993 53.094 43.019C53.301 42.661 53.491 42.293 53.67 41.919L54.533 41.343C55.851 40.465 57.386 40 58.971 40H61.011C60.498 41.91 59.2 43.499 57.445 44.399Z" fill="#DE3C4F"/>
<path d="M45.246 11H19.246V17H45.246V11ZM29.246 13H31.246V15H29.246V13ZM27.246 15H25.246V13H27.246V15ZM33.246 13H35.246V15H33.246V13ZM37.246 13H39.246V15H37.246V13ZM21.246 13H23.246V15H21.246V13ZM43.246 15H41.246V13H43.246V15Z" fill="#DE3C4F"/>
<path d="M21.246 21H23.246V23H21.246V21Z" fill="#DE3C4F"/>
<path d="M25.246 21H43.246V23H25.246V21Z" fill="#91297B"/>
<path d="M21.246 25H39.246V27H21.246V25Z" fill="#91297B"/>
<path d="M41.246 25H43.246V27H41.246V25Z" fill="#DE3C4F"/>
<path d="M23.246 31H25.246V33H23.246V31Z" fill="#DE3C4F"/>
<path d="M27.246 31H29.246V33H27.246V31Z" fill="#91297B"/>
<path d="M31.246 31H33.246V33H31.246V31Z" fill="#DE3C4F"/>
<path d="M35.246 31H37.246V33H35.246V31Z" fill="#91297B"/>
<path d="M39.246 31H41.246V33H39.246V31Z" fill="#DE3C4F"/>
<path d="M39 52C39 55.866 35.866 59 32 59C28.134 59 25 55.866 25 52C25 48.134 28.134 45 32 45C35.866 45 39 48.134 39 52ZM27.1 52C27.1 54.7062 29.2938 56.9 32 56.9C34.7062 56.9 36.9 54.7062 36.9 52C36.9 49.2938 34.7062 47.1 32 47.1C29.2938 47.1 27.1 49.2938 27.1 52Z" fill="#91297B"/>
</svg>
