<svg width="64" height="64" viewBox="0 0 64 64" fill="none" xmlns="http://www.w3.org/2000/svg">
<path d="M27 3.88675C30.094 2.10042 33.906 2.10042 37 3.88675L53.8468 13.6132C56.9408 15.3996 58.8468 18.7008 58.8468 22.2735V41.7265C58.8468 45.2992 56.9408 48.6004 53.8468 50.3868L37 60.1133C33.906 61.8996 30.094 61.8996 27 60.1132L10.1532 50.3867C7.0592 48.6004 5.15321 45.2992 5.15321 41.7265V22.2735C5.15321 18.7008 7.0592 15.3996 10.1532 13.6132L27 3.88675Z" fill="#EDEDED"/>
<path d="M32 8C28.8355 8 25.7421 8.93838 23.1109 10.6965C20.4797 12.4546 18.4289 14.9534 17.2179 17.8771C16.0069 20.8007 15.6901 24.0177 16.3074 27.1214C16.9248 30.2251 18.4487 33.0761 20.6863 35.3137C22.9239 37.5513 25.7749 39.0752 28.8786 39.6926C31.9823 40.3099 35.1993 39.9931 38.1229 38.7821C41.0466 37.5711 43.5454 35.5203 45.3035 32.8891C47.0616 30.2579 48 27.1645 48 24C47.9945 19.7582 46.307 15.6918 43.3076 12.6924C40.3082 9.69305 36.2418 8.00556 32 8ZM32 38C29.2311 38 26.5243 37.1789 24.222 35.6406C21.9197 34.1022 20.1253 31.9157 19.0657 29.3576C18.0061 26.7994 17.7288 23.9845 18.269 21.2687C18.8092 18.553 20.1426 16.0584 22.1005 14.1005C24.0584 12.1426 26.553 10.8092 29.2687 10.269C31.9845 9.72881 34.7994 10.0061 37.3576 11.0657C39.9157 12.1253 42.1022 13.9197 43.6406 16.222C45.1789 18.5243 46 21.2311 46 24C45.996 27.7118 44.5198 31.2705 41.8951 33.8951C39.2705 36.5198 35.7118 37.996 32 38Z" fill="#DE3C4F"/>
<path d="M38.78 50.3C45.09 43.23 54 31.85 54 24C54 18.1652 51.6822 12.5695 47.5564 8.44365C43.4305 4.31785 37.8348 2 32 2C26.1652 2 20.5695 4.31785 16.4437 8.44365C12.3179 12.5695 10 18.1652 10 24C10 31.85 18.91 43.23 25.22 50.3C20.53 50.73 11 52.09 11 56C11 60.12 21.89 62 32 62C42.11 62 53 60.12 53 56C53 52.09 43.47 50.73 38.78 50.3ZM12 24C12 18.6957 14.1071 13.6086 17.8579 9.85786C21.6086 6.10714 26.6957 4 32 4C37.3043 4 42.3914 6.10714 46.1421 9.85786C49.8929 13.6086 52 18.6957 52 24C52 33.88 35.61 50.95 32 54.59C28.39 50.95 12 33.88 12 24ZM32 60C19.71 60 13 57.36 13 56C13 55 17.22 52.81 26.91 52.17C29.31 54.77 31.06 56.48 31.3 56.72C31.4887 56.8997 31.7394 57 32 57C32.2606 57 32.5113 56.8997 32.7 56.72C32.94 56.48 34.69 54.77 37.09 52.17C46.78 52.81 51 55 51 56C51 57.36 44.29 60 32 60Z" fill="#DE3C4F"/>
<path d="M40.97 19.76L39.97 15.76C39.9164 15.5432 39.7918 15.3506 39.616 15.2128C39.4402 15.0751 39.2233 15.0002 39 15H25C24.7767 15.0002 24.5598 15.0751 24.384 15.2128C24.2082 15.3506 24.0836 15.5432 24.03 15.76L23.03 19.76C23.0138 19.8391 23.0038 19.9193 23 20V32C23 32.2652 23.1054 32.5196 23.2929 32.7071C23.4804 32.8946 23.7348 33 24 33H40C40.2652 33 40.5196 32.8946 40.7071 32.7071C40.8946 32.5196 41 32.2652 41 32V20C40.9962 19.9193 40.9862 19.8391 40.97 19.76ZM35 17H38.22L38.72 19H35V17ZM31 17H33V19H31V17ZM31 21H33V23H31V21ZM25.78 17H29V19H25.28L25.78 17ZM39 31H25V21H29V24C29 24.2652 29.1054 24.5196 29.2929 24.7071C29.4804 24.8946 29.7348 25 30 25H34C34.2652 25 34.5196 24.8946 34.7071 24.7071C34.8946 24.5196 35 24.2652 35 24V21H39V31Z" fill="#91297B"/>
<path d="M34 28C33.7348 28 33.4804 28.1054 33.2929 28.2929C33.1054 28.4804 33 28.7348 33 29C33 29.2652 33.1054 29.5196 33.2929 29.7071C33.4804 29.8946 33.7348 30 34 30H37C37.2652 30 37.5196 29.8946 37.7071 29.7071C37.8946 29.5196 38 29.2652 38 29C38 28.7348 37.8946 28.4804 37.7071 28.2929C37.5196 28.1054 37.2652 28 37 28H34Z" fill="#DE3C4F"/>
</svg>
