<svg width="64" height="64" viewBox="0 0 64 64" fill="none" xmlns="http://www.w3.org/2000/svg">
<path d="M27 3.88675C30.094 2.10042 33.906 2.10042 37 3.88675L53.8468 13.6132C56.9408 15.3996 58.8468 18.7008 58.8468 22.2735V41.7265C58.8468 45.2992 56.9408 48.6004 53.8468 50.3868L37 60.1133C33.906 61.8996 30.094 61.8996 27 60.1132L10.1532 50.3867C7.0592 48.6004 5.15321 45.2992 5.15321 41.7265V22.2735C5.15321 18.7008 7.0592 15.3996 10.1532 13.6132L27 3.88675Z" fill="#EDEDED"/>
<path d="M2 34.0002H4V36.0322H2V34.0002Z" fill="#DE3C4F"/>
<path d="M25 14.0002H35V16.0002H25V14.0002Z" fill="#DE3C4F"/>
<path d="M25 10.0002H35V12.0002H25V10.0002Z" fill="#91297B"/>
<path d="M25 18.0002H35V20.0002H25V18.0002Z" fill="#91297B"/>
<path d="M36 44.0002H40V46.0002H36V44.0002Z" fill="#91297B"/>
<path d="M28 44.0002H32V46.0002H28V44.0002Z" fill="#91297B"/>
<path d="M61.914 45.5941L59.694 40.5941L59.687 40.5831L58 36.7881V21.0001C58 20.8356 57.9594 20.6735 57.8818 20.5284C57.8042 20.3832 57.6919 20.2595 57.555 20.1681L30.555 2.16815C30.3907 2.05851 30.1975 2 30 2C29.8025 2 29.6093 2.05851 29.445 2.16815L2.445 20.1681C2.30808 20.2595 2.19583 20.3832 2.11821 20.5284C2.04058 20.6735 1.99998 20.8356 2 21.0001V32.0001H4V21.5351L30 4.20015L56 21.5351V36.0001H50V28.0001H51C51.2652 28.0001 51.5196 27.8948 51.7071 27.7073C51.8946 27.5197 52 27.2654 52 27.0001V23.0001C52 22.7349 51.8946 22.4806 51.7071 22.293C51.5196 22.1055 51.2652 22.0001 51 22.0001H9C8.73478 22.0001 8.48043 22.1055 8.29289 22.293C8.10536 22.4806 8 22.7349 8 23.0001V27.0001C8 27.2654 8.10536 27.5197 8.29289 27.7073C8.48043 27.8948 8.73478 28.0001 9 28.0001H10V40.0001H7C6.73478 40.0001 6.48043 40.1055 6.29289 40.293C6.10536 40.4806 6 40.7349 6 41.0001V60.0001H4V38.0321H2V61.0001C2 61.2654 2.10536 61.5197 2.29289 61.7072C2.48043 61.8948 2.73478 62.0001 3 62.0001H62V60.0001H57.974C58.4286 59.4114 58.7447 58.7278 58.899 58.0001H61C61.2652 58.0001 61.5196 57.8948 61.7071 57.7072C61.8946 57.5197 62 57.2654 62 57.0001V46.0001C62 45.9871 61.992 45.9741 61.992 45.9611C61.9894 45.835 61.9629 45.7105 61.914 45.5941ZM59.461 45.0001H52V42.0001H58.128L59.461 45.0001ZM10 24.0001H50V26.0001H10V24.0001ZM12 28.0001H48V36.0001H47C46.7348 36.0001 46.4804 36.1055 46.2929 36.293C46.1054 36.4806 46 36.7349 46 37.0001V48.0001H44V33.0001C44 32.7349 43.8946 32.4806 43.7071 32.293C43.5196 32.1055 43.2652 32.0001 43 32.0001H25C24.7348 32.0001 24.4804 32.1055 24.2929 32.293C24.1054 32.4806 24 32.7349 24 33.0001V48.0001H23C22.7348 48.0001 22.4804 48.1055 22.2929 48.293C22.1054 48.4806 22 48.7349 22 49.0001V57.0001C22 57.2654 22.1054 57.5197 22.2929 57.7072C22.4804 57.8948 22.7348 58.0001 23 58.0001H26.1C26.2543 58.7278 26.5704 59.4114 27.025 60.0001H20V41.0001C20 40.7349 19.8946 40.4806 19.7071 40.293C19.5196 40.1055 19.2652 40.0001 19 40.0001H12V28.0001ZM49.1 58.0001C49.2543 58.7278 49.5704 59.4114 50.025 60.0001H34.974C35.4286 59.4114 35.7447 58.7278 35.899 58.0001H49.1ZM26.1 56.0001H24V50.0001H46V56.0001H35.9C35.6705 54.8699 35.0573 53.8537 34.1643 53.1238C33.2712 52.3939 32.1534 51.9951 31 51.9951C29.8466 51.9951 28.7288 52.3939 27.8357 53.1238C26.9427 53.8537 26.3295 54.8699 26.1 56.0001ZM32 34.0001H36V40.0001H32V34.0001ZM31 42.0001H37C37.2652 42.0001 37.5196 41.8948 37.7071 41.7073C37.8946 41.5197 38 41.2654 38 41.0001V34.0001H42V48.0001H26V34.0001H30V41.0001C30 41.2654 30.1054 41.5197 30.2929 41.7073C30.4804 41.8948 30.7348 42.0001 31 42.0001ZM28 57.0001C28 56.4068 28.1759 55.8268 28.5056 55.3334C28.8352 54.8401 29.3038 54.4556 29.8519 54.2285C30.4001 54.0014 31.0033 53.942 31.5853 54.0578C32.1672 54.1735 32.7018 54.4593 33.1213 54.8788C33.5409 55.2984 33.8266 55.8329 33.9424 56.4149C34.0581 56.9968 33.9987 57.6 33.7716 58.1482C33.5446 58.6964 33.1601 59.1649 32.6667 59.4945C32.1734 59.8242 31.5933 60.0001 31 60.0001C30.2044 60.0001 29.4413 59.6841 28.8787 59.1215C28.3161 58.5589 28 57.7958 28 57.0001ZM8 42.0001H12V45.0001H14V42.0001H18V50.0001H8V42.0001ZM8 60.0001V52.0001H12V55.0001H14V52.0001H18V60.0001H8ZM51 57.0001C51 56.4068 51.1759 55.8268 51.5056 55.3334C51.8352 54.8401 52.3038 54.4556 52.852 54.2285C53.4001 54.0014 54.0033 53.942 54.5853 54.0578C55.1672 54.1735 55.7018 54.4593 56.1213 54.8788C56.5409 55.2984 56.8266 55.8329 56.9424 56.4149C57.0581 56.9968 56.9987 57.6 56.7716 58.1482C56.5446 58.6964 56.1601 59.1649 55.6667 59.4945C55.1734 59.8242 54.5933 60.0001 54 60.0001C53.2043 60.0001 52.4413 59.6841 51.8787 59.1215C51.3161 58.5589 51 57.7958 51 57.0001ZM58.9 56.0001C58.6705 54.8699 58.0573 53.8537 57.1643 53.1238C56.2712 52.3939 55.1534 51.9951 54 51.9951C52.8466 51.9951 51.7288 52.3939 50.8357 53.1238C49.9427 53.8537 49.3295 54.8699 49.1 56.0001H48V38.0001H56.351L57.239 40.0001H51C50.7348 40.0001 50.4804 40.1055 50.2929 40.293C50.1054 40.4806 50 40.7349 50 41.0001V46.0001C50 46.2654 50.1054 46.5197 50.2929 46.7073C50.4804 46.8948 50.7348 47.0001 51 47.0001H60V49.0001H57V51.0001H60V56.0001H58.9Z" fill="#DE3C4F"/>
<path d="M30 56.0002H32V58.0002H30V56.0002Z" fill="#91297B"/>
<path d="M53 56.0002H55V58.0002H53V56.0002Z" fill="#91297B"/>
</svg>
