<svg width="64" height="64" viewBox="0 0 64 64" fill="none" xmlns="http://www.w3.org/2000/svg">
<path d="M27 3.88675C30.094 2.10042 33.906 2.10042 37 3.88675L53.8468 13.6132C56.9408 15.3996 58.8468 18.7008 58.8468 22.2735V41.7265C58.8468 45.2992 56.9408 48.6004 53.8468 50.3868L37 60.1133C33.906 61.8996 30.094 61.8996 27 60.1132L10.1532 50.3867C7.0592 48.6004 5.15321 45.2992 5.15321 41.7265V22.2735C5.15321 18.7008 7.0592 15.3996 10.1532 13.6132L27 3.88675Z" fill="#EDEDED"/>
<path d="M61.89 37.55L60 33.76V17C60.0008 16.8684 59.9755 16.7379 59.9258 16.6161C59.876 16.4943 59.8027 16.3834 59.71 16.29L58.41 15L59.71 13.71C59.8027 13.6166 59.876 13.5057 59.9258 13.3839C59.9755 13.2621 60.0008 13.1316 60 13V9C60 8.73478 59.8946 8.48043 59.7071 8.29289C59.5196 8.10536 59.2652 8 59 8H6C5.73478 8 5.48043 8.10536 5.29289 8.29289C5.10536 8.48043 5 8.73478 5 9V13C4.99924 13.1316 5.02446 13.2621 5.07423 13.3839C5.12399 13.5057 5.19732 13.6166 5.29 13.71L6.59 15L5.29 16.29C5.19732 16.3834 5.12399 16.4943 5.07423 16.6161C5.02446 16.7379 4.99924 16.8684 5 17V33.67L2.2 37.4C2.07018 37.5731 2 37.7836 2 38V55C2 55.2652 2.10536 55.5196 2.29289 55.7071C2.48043 55.8946 2.73478 56 3 56H61C61.2652 56 61.5196 55.8946 61.7071 55.7071C61.8946 55.5196 62 55.2652 62 55V38C61.9955 37.8471 61.958 37.697 61.89 37.56V37.55ZM9 35V39.76L7.89 37.55C7.8069 37.3851 7.67976 37.2464 7.52267 37.1493C7.36557 37.0522 7.18467 37.0006 7 37H5L6.5 35H9ZM12 22V20H20V22H12ZM18 24V26H14V24H18ZM12.2 28H19.8L20.54 30H11.46L12.2 28ZM11 32H21V41H11V32ZM23 35H25V41H23V35ZM28 22V20H36V22H28ZM34 24V26H30V24H34ZM28.2 28H35.8L36.54 30H27.46L28.2 28ZM27 32H37V41H27V32ZM39 35H41V41H39V35ZM44 22V20H52V22H44ZM50 24V26H46V24H50ZM44.2 28H51.8L52.54 30H43.46L44.2 28ZM43 32H53V41H43V32ZM55 35H58.38L59.38 37H57C56.8153 37.0006 56.6344 37.0522 56.4773 37.1493C56.3202 37.2464 56.1931 37.3851 56.11 37.55L55 39.76V35ZM7 10H58V12.59L56.59 14H8.41L7 12.59V10ZM8.41 16H56.59L58 17.41V33H55V31.09C55.0152 30.9839 55.0152 30.8761 55 30.77V30.66L53.53 26.66C53.4556 26.4515 53.3141 26.2736 53.1277 26.1541C52.9413 26.0347 52.7205 25.9805 52.5 26H52V24H53C53.2652 24 53.5196 23.8946 53.7071 23.7071C53.8946 23.5196 54 23.2652 54 23V19C54 18.7348 53.8946 18.4804 53.7071 18.2929C53.5196 18.1054 53.2652 18 53 18H43C42.7348 18 42.4804 18.1054 42.2929 18.2929C42.1054 18.4804 42 18.7348 42 19V23C42 23.2652 42.1054 23.5196 42.2929 23.7071C42.4804 23.8946 42.7348 24 43 24H44V26H43.5C43.2945 26.0001 43.094 26.0635 42.9258 26.1816C42.7576 26.2997 42.6299 26.4667 42.56 26.66L41.09 30.66V30.77C41.0748 30.8761 41.0748 30.9839 41.09 31.09V33H39V31.09C39.0152 30.9839 39.0152 30.8761 39 30.77V30.66L37.53 26.66C37.4556 26.4515 37.3141 26.2736 37.1277 26.1541C36.9413 26.0347 36.7205 25.9805 36.5 26H36V24H37C37.2652 24 37.5196 23.8946 37.7071 23.7071C37.8946 23.5196 38 23.2652 38 23V19C38 18.7348 37.8946 18.4804 37.7071 18.2929C37.5196 18.1054 37.2652 18 37 18H27C26.7348 18 26.4804 18.1054 26.2929 18.2929C26.1054 18.4804 26 18.7348 26 19V23C26 23.2652 26.1054 23.5196 26.2929 23.7071C26.4804 23.8946 26.7348 24 27 24H28V26H27.5C27.2945 26.0001 27.094 26.0635 26.9258 26.1816C26.7576 26.2997 26.6299 26.4667 26.56 26.66L25.09 30.66V30.77C25.0581 30.8737 25.0412 30.9815 25.04 31.09V33H23V31.09C22.9988 30.9815 22.9819 30.8737 22.95 30.77V30.66L21.48 26.66C21.4079 26.4602 21.2741 26.2885 21.0979 26.1698C20.9217 26.0511 20.7123 25.9917 20.5 26H20V24H21C21.2652 24 21.5196 23.8946 21.7071 23.7071C21.8946 23.5196 22 23.2652 22 23V19C22 18.7348 21.8946 18.4804 21.7071 18.2929C21.5196 18.1054 21.2652 18 21 18H11C10.7348 18 10.4804 18.1054 10.2929 18.2929C10.1054 18.4804 10 18.7348 10 19V23C10 23.2652 10.1054 23.5196 10.2929 23.7071C10.4804 23.8946 10.7348 24 11 24H12V26H11.5C11.2945 26.0001 11.094 26.0635 10.9258 26.1816C10.7576 26.2997 10.6299 26.4667 10.56 26.66L9.09 30.66V30.77C9.05805 30.8737 9.04121 30.9815 9.04 31.09V33H7V17.41L8.41 16ZM60 54H4V39H6.38L8.11 42.45C8.1931 42.6149 8.32024 42.7536 8.47733 42.8507C8.63443 42.9478 8.81533 42.9994 9 43H55C55.1847 42.9994 55.3656 42.9478 55.5227 42.8507C55.6798 42.7536 55.8069 42.6149 55.89 42.45L57.62 39H60V54Z" fill="#DE3C4F"/>
<path d="M13 36H19V38H13V36Z" fill="#91297B"/>
<path d="M29 36H35V38H29V36Z" fill="#91297B"/>
<path d="M45 36H51V38H45V36Z" fill="#91297B"/>
<path d="M8 46H55V48H8V46Z" fill="#91297B"/>
</svg>
