<?xml version="1.0" encoding="utf-8"?><svg viewBox="0 0 24 24" xmlns="http://www.w3.org/2000/svg" xmlns:xlink="http://www.w3.org/1999/xlink"><style>:root>svg{display:none}:root>svg:target{display:block}</style><svg viewBox="0 0 24 24" id="percent" xmlns="http://www.w3.org/2000/svg"><path fill-rule="evenodd" clip-rule="evenodd" d="M12 2C6.477 2 2 6.477 2 12s4.477 10 10 10 10-4.477 10-10S17.523 2 12 2zM4 12a8 8 0 1116 0 8 8 0 01-16 0zm4-2.667a1.333 1.333 0 112.667 0 1.333 1.333 0 01-2.667 0zm2.142 6.142a1.143 1.143 0 01-1.617-1.616l5.334-5.334a1.143 1.143 0 111.616 1.617l-5.333 5.333zm3.191-.808a1.333 1.333 0 112.667 0 1.333 1.333 0 01-2.667 0z"/></svg><svg viewBox="0 0 14 10" id="right-arrow" xmlns="http://www.w3.org/2000/svg"><path fill-rule="evenodd" clip-rule="evenodd" d="M8.196.3A1 1 0 019.61.286l4.09 4a1 1 0 010 1.426l-4.09 4a1 1 0 01-1.402-1.426L10.555 6H1a1 1 0 110-2h9.555L8.208 1.713A1 1 0 018.196.3z"/></svg><svg viewBox="0 0 20 4" id="three-dots" xmlns="http://www.w3.org/2000/svg"><path d="M4 2a2 2 0 11-4 0 2 2 0 014 0zm8 0a2 2 0 11-4 0 2 2 0 014 0zm8 0a2 2 0 11-4 0 2 2 0 014 0z"/></svg><svg viewBox="0 0 18 14" id="white-icon-telegram" xmlns="http://www.w3.org/2000/svg"><path d="M1.237 6.027c4.832-1.976 8.054-3.278 9.666-3.908C15.506.323 16.463.011 17.086 0c.137-.002.444.03.642.181.168.128.214.3.236.421.022.121.05.397.028.613-.25 2.46-1.329 8.428-1.878 11.183-.232 1.166-.69 1.557-1.133 1.595-.962.083-1.693-.597-2.625-1.17-1.459-.898-2.283-1.457-3.7-2.332-1.636-1.012-.575-1.569.358-2.478.244-.238 4.485-3.858 4.567-4.186.01-.041.02-.194-.077-.275-.097-.081-.24-.053-.343-.031-.147.03-2.477 1.476-6.992 4.336-.661.427-1.26.634-1.797.623-.592-.012-1.73-.314-2.577-.572C.757 7.592-.067 7.424.005 6.886c.037-.28.448-.566 1.232-.859z"/></svg><svg viewBox="0 0 18 20" id="white-icon-viber" xmlns="http://www.w3.org/2000/svg"><path d="M13.932.475a26.185 26.185 0 00-9.927 0C2.56.79.738 2.563.425 3.955a20.168 20.168 0 000 8.23c.376 1.392 2.198 3.164 3.58 3.48.063 0 .126.064.126.127v3.987c0 .19.251.317.377.127l1.885-1.962s1.508-1.582 1.759-1.836c0 0 .063-.063.125-.063 1.885.063 3.833-.127 5.718-.443 1.445-.316 3.267-2.089 3.58-3.481a20.166 20.166 0 000-8.228C17.2 2.563 15.378.79 13.933.475zm.063 11.899c-.314.633-.691 1.14-1.32 1.456l-.565.19a8.264 8.264 0 01-.628-.19c-2.01-.823-3.896-1.962-5.403-3.608a15.24 15.24 0 01-2.074-3.165c-.251-.57-.502-1.076-.69-1.645-.19-.507.125-1.013.439-1.393.314-.38.691-.633 1.13-.823.315-.19.63-.063.88.19.503.633 1.006 1.266 1.383 1.962.25.443.188.95-.252 1.266-.125.064-.188.127-.314.253-.063.064-.188.127-.251.254a.62.62 0 00-.063.57c.503 1.455 1.445 2.594 2.89 3.227.251.127.44.19.754.19.44-.063.628-.57.942-.823.315-.253.691-.253 1.069-.063.314.19.628.443 1.005.696.314.254.628.443.942.697.189.126.251.443.126.759zm-2.639-4.747c-.126 0-.063 0 0 0-.251 0-.314-.127-.377-.316 0-.127 0-.317-.063-.444a1.204 1.204 0 00-.44-.696l-.377-.19c-.188-.063-.314-.063-.502-.063-.189-.063-.251-.19-.251-.38 0-.126.188-.253.314-.253 1.005.063 1.759.633 1.884 1.836v.253c0 .126-.062.253-.188.253zm-.628-2.785c-.314-.127-.628-.253-1.005-.316-.126 0-.315-.064-.44-.064-.189 0-.314-.126-.252-.316 0-.19.126-.317.315-.253.628.063 1.193.19 1.759.443 1.13.57 1.759 1.519 1.947 2.785v.823c-.063.253-.502.316-.565 0 0-.064-.063-.19-.063-.254 0-.57-.126-1.139-.377-1.645-.377-.57-.817-.95-1.32-1.203zM14.12 8.64c-.188 0-.314-.19-.314-.38 0-.38-.063-.76-.125-1.14-.252-2.025-1.885-3.67-3.833-3.987-.314-.063-.628-.063-.88-.127-.188 0-.44 0-.502-.253-.063-.19.126-.38.314-.38h.126c2.576.064.125 0 0 0 2.638.064 4.837 1.836 5.277 4.494.063.444.126.887.126 1.393.126.19 0 .38-.189.38z"/></svg><svg viewBox="0 0 20 20" id="white-icon-whatsapp" xmlns="http://www.w3.org/2000/svg"><path fill-rule="evenodd" clip-rule="evenodd" d="M17 2.875C15.125 1 12.625 0 10 0 4.5 0 0 4.5 0 10c0 1.75.5 3.5 1.375 5L0 20l5.25-1.375c1.5.75 3.125 1.25 4.75 1.25 5.5 0 10-4.5 10-10 0-2.625-1.125-5.125-3-7zM10 18.25c-1.5 0-3-.375-4.25-1.125L5.5 17l-3.125.875.875-3L3 14.5c-.875-1.375-1.25-2.875-1.25-4.375 0-4.5 3.75-8.25 8.25-8.25 2.25 0 4.25.875 5.875 2.375 1.625 1.625 2.375 3.625 2.375 5.875 0 4.375-3.625 8.125-8.25 8.125zM14.5 12c-.25-.125-1.5-.75-1.75-.75-.25-.125-.375-.125-.5.125s-.625.75-.75 1c-.125.125-.25.125-.5.125-.25-.125-1-.375-2-1.25-.75-.625-1.25-1.5-1.375-1.75s0-.375.125-.5l.375-.375c.125-.125.125-.25.25-.375s0-.25 0-.375S7.875 6.5 7.625 6c-.125-.375-.375-.375-.5-.375h-.5c-.125 0-.375 0-.625.25S5.125 6.75 5.125 8s.875 2.375 1 2.625c.125.125 1.75 2.75 4.25 3.75 2.125.875 2.5.625 3 .625s1.5-.625 1.625-1.125c.25-.625.25-1.125.125-1.125-.125-.625-.375-.625-.625-.75z"/></svg></svg>