<svg width="8" height="20" viewBox="0 0 8 20" fill="none" xmlns="http://www.w3.org/2000/svg">
<path d="M7.48751 17.4114L5.99724 18.9016C5.85946 19.0406 5.69412 19.1491 5.51182 19.2203C5.32953 19.2915 5.13429 19.3239 4.93861 19.3153C4.74294 19.3066 4.55114 19.2573 4.3755 19.1703C4.19986 19.0833 4.04425 18.9606 3.91864 18.8101C2.5531 17.1123 1.60419 15.1188 1.14816 12.9895C0.708216 11.0242 0.706196 8.98695 1.14224 7.02249C1.59699 4.88535 2.54897 2.88638 3.92106 1.18753C4.04599 1.03772 4.2008 0.915626 4.37563 0.829024C4.55045 0.742422 4.74147 0.693207 4.93652 0.684513C5.13156 0.67582 5.32636 0.707837 5.50851 0.778527C5.69066 0.849217 5.85617 0.957031 5.9945 1.0951L7.48773 2.58834C7.73166 2.82752 7.88048 3.14707 7.90643 3.48743C7.93238 3.82778 7.83371 4.16572 7.6288 4.43825C7.2149 4.97819 6.86351 5.56335 6.58133 6.18256C6.4705 6.42733 6.29176 6.63505 6.06629 6.78113C5.84082 6.9272 5.57807 7.00549 5.30919 7.00673L4.04617 7.00548C3.51108 8.9577 3.51312 11.0192 4.05209 12.9725L5.3151 12.9737C5.58399 12.9755 5.84689 13.0543 6.07265 13.2008C6.29841 13.3474 6.47756 13.5554 6.58888 13.8004C6.8723 14.4202 7.22485 15.0061 7.63981 15.5468C7.84756 15.8227 7.94683 16.165 7.91875 16.5088C7.89067 16.8526 7.73719 17.1738 7.48751 17.4114Z" fill="#DE3C4F"/>
</svg>
