<svg width="38" height="38" viewBox="0 0 38 38" fill="none" xmlns="http://www.w3.org/2000/svg">
<path d="M33 14.1665V21.3539C33 26.9372 30.2 29.7288 24.6 29.7288H23.9C23.466 29.7288 23.046 29.9382 22.78 30.2871L20.68 33.0788C19.756 34.3071 18.244 34.3071 17.32 33.0788L15.22 30.2871C14.996 29.9801 14.478 29.7288 14.1 29.7288H13.4C7.8 29.7288 5 28.333 5 21.3539V11.3749C5 5.79163 7.8 3 13.4 3H21.8" stroke="#DE3C4F" stroke-width="2" stroke-miterlimit="10" stroke-linecap="round" stroke-linejoin="round"/>
<path d="M28 11C29.6569 11 31 9.65685 31 8C31 6.34315 29.6569 5 28 5C26.3431 5 25 6.34315 25 8C25 9.65685 26.3431 11 28 11Z" stroke="#DE3C4F" stroke-width="2" stroke-linecap="round" stroke-linejoin="round"/>
<path d="M23.659 18H23.677" stroke="#DE3C4F" stroke-width="2" stroke-linecap="round" stroke-linejoin="round"/>
<path d="M18.3269 18H18.3449" stroke="#DE3C4F" stroke-width="2" stroke-linecap="round" stroke-linejoin="round"/>
<path d="M12.991 18H13.009" stroke="#DE3C4F" stroke-width="2" stroke-linecap="round" stroke-linejoin="round"/>
</svg>
