<svg width="39" height="38" viewBox="0 0 39 38" fill="none" xmlns="http://www.w3.org/2000/svg">
<path d="M33.5 28.0121C33.5 28.5161 33.3878 29.0341 33.1495 29.5381C32.9111 30.0421 32.6027 30.5181 32.196 30.9661C31.509 31.7221 30.7519 32.2681 29.8966 32.6181C29.0553 32.9681 28.144 33.1501 27.1625 33.1501C25.7324 33.1501 24.2041 32.8141 22.5916 32.1281C20.9792 31.4421 19.3668 30.5181 17.7684 29.3561C16.156 28.1801 14.6277 26.8781 13.1695 25.4361C11.7253 23.9801 10.4214 22.4541 9.25764 20.8581C8.10791 19.2621 7.18252 17.6661 6.50951 16.0841C5.8365 14.4881 5.5 12.9621 5.5 11.5061C5.5 10.5541 5.66825 9.64415 6.00476 8.80415C6.34126 7.95015 6.87406 7.16615 7.61718 6.46615C8.51452 5.58415 9.49599 5.15015 10.5336 5.15015C10.9261 5.15015 11.3187 5.23415 11.6693 5.40215C12.0338 5.57015 12.3563 5.82215 12.6087 6.18615L15.8615 10.7641C16.1139 11.1141 16.2962 11.4361 16.4224 11.7441C16.5486 12.0381 16.6187 12.3321 16.6187 12.5981C16.6187 12.9341 16.5205 13.2701 16.3242 13.5921C16.142 13.9141 15.8756 14.2501 15.5391 14.5861L14.4735 15.6921C14.3192 15.8461 14.2491 16.0281 14.2491 16.2521C14.2491 16.3641 14.2631 16.4621 14.2912 16.5741C14.3333 16.6861 14.3753 16.7701 14.4034 16.8541C14.6557 17.3161 15.0904 17.9181 15.7073 18.6461C16.3383 19.3741 17.0113 20.1161 17.7404 20.8581C18.4975 21.6001 19.2266 22.2861 19.9697 22.9161C20.6988 23.5321 21.3017 23.9521 21.7784 24.2041C21.8485 24.2321 21.9326 24.2741 22.0308 24.3161C22.143 24.3581 22.2551 24.3721 22.3813 24.3721C22.6197 24.3721 22.802 24.2881 22.9562 24.1341L24.0218 23.0841C24.3723 22.7341 24.7088 22.4681 25.0313 22.3001C25.3538 22.1041 25.6763 22.0061 26.0268 22.0061C26.2932 22.0061 26.5736 22.0621 26.8821 22.1881C27.1905 22.3141 27.513 22.4961 27.8635 22.7341L32.5045 26.0241C32.8691 26.2761 33.1214 26.5701 33.2757 26.9201C33.4159 27.2701 33.5 27.6201 33.5 28.0121Z" stroke="#DE3C4F" stroke-width="2" stroke-miterlimit="10"/>
<path d="M29.334 15C29.334 14.1429 28.6626 12.8286 27.6626 11.7571C26.7483 10.7714 25.534 10 24.334 10" stroke="#DE3C4F" stroke-width="2" stroke-linecap="round" stroke-linejoin="round"/>
<path d="M34.334 15C34.334 9.47143 29.8626 5 24.334 5" stroke="#DE3C4F" stroke-width="2" stroke-linecap="round" stroke-linejoin="round"/>
</svg>
