<svg width="26" height="15" viewBox="0 0 26 15" fill="none" xmlns="http://www.w3.org/2000/svg">
<path d="M3 1.5C3 0.671573 3.67157 0 4.5 0H21.5C22.3284 0 23 0.671573 23 1.5C23 2.32843 22.3284 3 21.5 3H4.5C3.67157 3 3 2.32843 3 1.5Z" fill="#DE3C4F"/>
<path d="M3 13.5C3 12.6716 3.67157 12 4.5 12H21.5C22.3284 12 23 12.6716 23 13.5C23 14.3284 22.3284 15 21.5 15H4.5C3.67157 15 3 14.3284 3 13.5Z" fill="#DE3C4F"/>
<path d="M0 7.5C0 6.67157 0.671573 6 1.5 6H24.5C25.3284 6 26 6.67157 26 7.5C26 8.32843 25.3284 9 24.5 9H1.5C0.671572 9 0 8.32843 0 7.5Z" fill="#DE3C4F"/>
</svg>
