<svg width="40" height="40" viewBox="0 0 40 40" fill="none" xmlns="http://www.w3.org/2000/svg">
<path d="M20 40C31.0457 40 40 31.0457 40 20C40 8.9543 31.0457 0 20 0C8.9543 0 0 8.9543 0 20C0 31.0457 8.9543 40 20 40Z" fill="#2F89CE"/>
<path d="M10.2374 19.027C15.0692 17.0513 18.2912 15.7487 19.9033 15.1194C24.5063 13.3226 25.4627 13.0105 26.0861 13.0001C26.2232 12.9979 26.5298 13.0298 26.7284 13.1811C26.8961 13.3088 26.9422 13.4813 26.9643 13.6023C26.9864 13.7234 27.0139 13.9992 26.992 14.2147C26.7426 16.6744 25.6633 22.6434 25.1142 25.3983C24.8818 26.564 24.4244 26.9548 23.9815 26.9931C23.0189 27.0762 22.288 26.3961 21.3558 25.8226C19.897 24.9251 19.0729 24.3664 17.6569 23.4907C16.0205 22.4786 17.0813 21.9224 18.0139 21.0133C18.258 20.7754 22.4988 17.1552 22.5809 16.8268C22.5912 16.7857 22.6007 16.6326 22.5038 16.5517C22.4069 16.4709 22.2639 16.4985 22.1606 16.5205C22.0143 16.5517 19.6839 17.9973 15.1694 20.8573C14.5079 21.2836 13.9087 21.4913 13.3719 21.4805C12.7801 21.4685 11.6417 21.1664 10.7955 20.9083C9.75749 20.5916 8.93252 20.4242 9.00436 19.8864C9.04178 19.6063 9.45279 19.3198 10.2374 19.027Z" fill="white"/>
</svg>
