<svg width="40" height="40" viewBox="0 0 40 40" fill="none" xmlns="http://www.w3.org/2000/svg">
<path d="M20 40C31.0457 40 40 31.0457 40 20C40 8.9543 31.0457 0 20 0C8.9543 0 0 8.9543 0 20C0 31.0457 8.9543 40 20 40Z" fill="#7C509A"/>
<path d="M24.9319 11.4747C21.6649 10.8418 18.2723 10.8418 15.0052 11.4747C13.5602 11.7912 11.7382 13.5634 11.4241 14.9559C10.8586 17.6776 10.8586 20.4625 11.4241 23.1842C11.801 24.5766 13.623 26.3489 15.0052 26.6653C15.0681 26.6653 15.1309 26.7286 15.1309 26.7919V30.7795C15.1309 30.9694 15.3822 31.096 15.5079 30.9061L17.3927 28.9439C17.3927 28.9439 18.9005 27.3616 19.1518 27.1084C19.1518 27.1084 19.2147 27.0451 19.2775 27.0451C21.1623 27.1084 23.1099 26.9185 24.9948 26.6021C26.4398 26.2856 28.2618 24.5133 28.5759 23.1209C29.1414 20.3992 29.1414 17.6143 28.5759 14.8926C28.199 13.5634 26.377 11.7912 24.9319 11.4747ZM24.9948 23.374C24.6806 24.007 24.3037 24.5133 23.6754 24.8298C23.4869 24.8931 23.2984 24.9564 23.1099 25.0197C22.8586 24.9564 22.6702 24.8931 22.4817 24.8298C20.4712 24.007 18.5864 22.8677 17.0785 21.222C16.2618 20.2726 15.5707 19.1966 15.0052 18.0573C14.7539 17.4877 14.5026 16.9813 14.3141 16.4117C14.1257 15.9053 14.4398 15.399 14.7539 15.0192C15.0681 14.6394 15.445 14.3862 15.8848 14.1964C16.199 14.0065 16.5131 14.1331 16.7644 14.3862C17.267 15.0192 17.7696 15.6521 18.1466 16.3484C18.3979 16.7914 18.3351 17.2978 17.8953 17.6143C17.7696 17.6776 17.7068 17.7408 17.5812 17.8674C17.5183 17.9307 17.3927 17.994 17.3298 18.1206C17.2042 18.3105 17.2042 18.5004 17.267 18.6903C17.7696 20.146 18.712 21.2853 20.1571 21.9183C20.4084 22.0449 20.5969 22.1082 20.911 22.1082C21.3508 22.0449 21.5393 21.5385 21.8534 21.2853C22.1675 21.0322 22.5445 21.0322 22.9215 21.222C23.2356 21.4119 23.5497 21.6651 23.9267 21.9183C24.2408 22.1715 24.555 22.3613 24.8691 22.6145C25.0576 22.7411 25.1204 23.0576 24.9948 23.374ZM22.356 18.627C22.2304 18.627 22.2932 18.627 22.356 18.627C22.1047 18.627 22.0419 18.5004 21.9791 18.3105C21.9791 18.1839 21.9791 17.994 21.9162 17.8674C21.8534 17.6143 21.7277 17.3611 21.4764 17.1712C21.3508 17.1079 21.2251 17.0446 21.0995 16.9813C20.911 16.918 20.7853 16.918 20.5969 16.918C20.4084 16.8547 20.3455 16.7281 20.3455 16.5383C20.3455 16.4117 20.534 16.2851 20.6597 16.2851C21.6649 16.3484 22.4188 16.918 22.5445 18.1206C22.5445 18.1839 22.5445 18.3105 22.5445 18.3738C22.5445 18.5004 22.4817 18.627 22.356 18.627ZM21.7277 15.842C21.4136 15.7154 21.0995 15.5888 20.7225 15.5255C20.5969 15.5255 20.4084 15.4623 20.2827 15.4623C20.0942 15.4623 19.9686 15.3357 20.0314 15.1458C20.0314 14.9559 20.1571 14.8293 20.3455 14.8926C20.9738 14.9559 21.5393 15.0825 22.1047 15.3357C23.2356 15.9053 23.8639 16.8547 24.0524 18.1206C24.0524 18.1839 24.0524 18.2472 24.0524 18.3105C24.0524 18.4371 24.0524 18.5637 24.0524 18.7536C24.0524 18.8169 24.0524 18.8801 24.0524 18.9434C23.9895 19.1966 23.5497 19.2599 23.4869 18.9434C23.4869 18.8801 23.4241 18.7536 23.4241 18.6903C23.4241 18.1206 23.2984 17.551 23.0471 17.0446C22.6702 16.475 22.2304 16.0952 21.7277 15.842ZM25.1204 19.6397C24.9319 19.6397 24.8063 19.4498 24.8063 19.2599C24.8063 18.8801 24.7435 18.5004 24.6806 18.1206C24.4293 16.0952 22.7958 14.4495 20.8482 14.1331C20.534 14.0698 20.2199 14.0698 19.9686 14.0065C19.7801 14.0065 19.5288 14.0065 19.466 13.7533C19.4031 13.5634 19.5916 13.3735 19.7801 13.3735C19.8429 13.3735 19.9058 13.3735 19.9058 13.3735C22.4817 13.4368 20.0314 13.3735 19.9058 13.3735C22.5445 13.4368 24.7435 15.2091 25.1832 17.8674C25.2461 18.3105 25.3089 18.7536 25.3089 19.2599C25.4346 19.4498 25.3089 19.6397 25.1204 19.6397Z" fill="white"/>
</svg>
