<svg width="38" height="38" viewBox="0 0 38 38" fill="none" xmlns="http://www.w3.org/2000/svg">
<path d="M19.2523 17C19.0946 16.9842 18.9054 16.9842 18.732 17C14.9797 16.8737 12 13.7959 12 10.0079C12 6.14092 15.1216 3 19 3C22.8626 3 26 6.14092 26 10.0079C25.9842 13.7959 23.0045 16.8737 19.2523 17Z" stroke="#DE3C4F" stroke-width="2" stroke-linecap="round" stroke-linejoin="round"/>
<path d="M10.9274 23.0693C7.02419 25.5117 7.02419 29.492 10.9274 31.9194C15.3629 34.6935 22.6371 34.6935 27.0726 31.9194C30.9758 29.477 30.9758 25.4967 27.0726 23.0693C22.6532 20.3102 15.379 20.3102 10.9274 23.0693Z" stroke="#DE3C4F" stroke-width="2" stroke-linecap="round" stroke-linejoin="round"/>
</svg>
