<svg width="38" height="38" viewBox="0 0 38 38" fill="none" xmlns="http://www.w3.org/2000/svg">
<path d="M16.5256 3.36039L8.40232 6.25925C6.53023 6.92583 5 9.0341 5 10.9408V22.4588C5 24.288 6.26979 26.6908 7.8163 27.7914L14.8163 32.7676C17.1116 34.4108 20.8884 34.4108 23.1837 32.7676L30.1837 27.7914C31.7303 26.6908 33 24.288 33 22.4588V10.9408C33 9.0341 31.4698 6.92583 29.5977 6.25925L21.4744 3.36039C20.0907 2.87983 17.8767 2.87983 16.5256 3.36039Z" stroke="#DE3C4F" stroke-width="2" stroke-linecap="round" stroke-linejoin="round"/>
<path d="M19 24C22.3137 24 25 21.3137 25 18C25 14.6863 22.3137 12 19 12C15.6863 12 13 14.6863 13 18C13 21.3137 15.6863 24 19 24Z" stroke="#DE3C4F" stroke-width="2" stroke-miterlimit="10" stroke-linecap="round" stroke-linejoin="round"/>
<path d="M19 16V17.24C19 17.7067 18.712 18.1467 18.216 18.3867L17 19" stroke="#DE3C4F" stroke-width="2" stroke-miterlimit="10" stroke-linecap="round" stroke-linejoin="round"/>
</svg>
