<svg width="38" height="38" viewBox="0 0 38 38" fill="none" xmlns="http://www.w3.org/2000/svg">
<path d="M28.3333 29.9769H27.1511C25.9067 29.9769 24.7244 30.4732 23.8533 31.3697L21.1933 34.0754C19.98 35.3082 18.0045 35.3082 16.7911 34.0754L14.1311 31.3697C13.26 30.4732 12.0622 29.9769 10.8333 29.9769H9.66667C7.08444 29.9769 5 27.8476 5 25.2219V7.75493C5 5.12929 7.08444 3 9.66667 3H28.3333C30.9156 3 33 5.12929 33 7.75493V25.2219C33 27.8316 30.9156 29.9769 28.3333 29.9769Z" stroke="#DE3C4F" stroke-width="2" stroke-miterlimit="10" stroke-linecap="round" stroke-linejoin="round"/>
<path d="M19 16C21.2091 16 23 14.2091 23 12C23 9.79083 21.2091 8.00003 19 8.00003C16.7909 8.00003 15 9.79083 15 12C15 14.2091 16.7909 16 19 16Z" stroke="#DE3C4F" stroke-width="2" stroke-linecap="round" stroke-linejoin="round"/>
<path d="M26 25C26 22.2393 22.8675 20 19 20C15.1325 20 12 22.2393 12 25" stroke="#DE3C4F" stroke-width="2" stroke-linecap="round" stroke-linejoin="round"/>
</svg>
