<svg width="182" height="20" viewBox="0 0 182 20" fill="none" xmlns="http://www.w3.org/2000/svg">
<path d="M7.31485 20C5.78638 20 4.47625 19.6599 3.38448 18.9796C2.29271 18.2993 1.45569 17.3741 0.873415 16.2041C0.291138 15.034 0 13.7143 0 12.2449C0 10.7574 0.300237 9.42857 0.90071 8.2585C1.51028 7.08843 2.3655 6.1678 3.46637 5.4966C4.56723 4.8254 5.86826 4.4898 7.36944 4.4898C9.10717 4.4898 10.5629 4.92971 11.7365 5.80952C12.9193 6.68027 13.6744 7.87302 14.0019 9.38776L10.2899 10.3673C10.0716 9.60544 9.68945 9.01134 9.14357 8.58503C8.60678 8.15873 7.99721 7.94558 7.31485 7.94558C6.53242 7.94558 5.891 8.13605 5.39061 8.51701C4.89021 8.88889 4.52174 9.40136 4.28519 10.0544C4.04864 10.6984 3.93037 11.4286 3.93037 12.2449C3.93037 13.5238 4.21241 14.5624 4.77649 15.3605C5.34967 16.1497 6.19579 16.5442 7.31485 16.5442C8.15188 16.5442 8.78874 16.3537 9.22545 15.9728C9.66216 15.5918 9.98969 15.0476 10.208 14.3401L14.0019 15.1293C13.5834 16.6893 12.7919 17.8912 11.6273 18.7347C10.4628 19.5782 9.02529 20 7.31485 20Z" fill="white"/>
<path d="M22.9643 20C21.4813 20 20.1802 19.6689 19.0612 19.0068C17.9421 18.3447 17.0687 17.4331 16.4409 16.2721C15.8223 15.102 15.5129 13.7596 15.5129 12.2449C15.5129 10.712 15.8314 9.36508 16.4682 8.20408C17.1051 7.03401 17.9831 6.12245 19.1021 5.46939C20.2212 4.81633 21.5086 4.4898 22.9643 4.4898C24.4472 4.4898 25.7483 4.82086 26.8673 5.48299C27.9955 6.14512 28.8734 7.06122 29.5012 8.23129C30.129 9.39229 30.4429 10.7302 30.4429 12.2449C30.4429 13.7687 30.1244 15.1156 29.4876 16.2857C28.8598 17.4467 27.9818 18.3583 26.8537 19.0204C25.7346 19.6735 24.4381 20 22.9643 20ZM22.9643 16.5442C24.1561 16.5442 25.0432 16.1451 25.6254 15.3469C26.2168 14.5397 26.5125 13.5057 26.5125 12.2449C26.5125 10.9388 26.2123 9.89569 25.6118 9.11565C25.0204 8.3356 24.1379 7.94558 22.9643 7.94558C22.1545 7.94558 21.4904 8.12698 20.9718 8.4898C20.4532 8.85261 20.0665 9.35601 19.8118 10C19.5661 10.644 19.4433 11.3923 19.4433 12.2449C19.4433 13.5601 19.739 14.6077 20.3304 15.3878C20.9308 16.1587 21.8088 16.5442 22.9643 16.5442Z" fill="white"/>
<path d="M38.8032 20C36.9472 20 35.446 19.5828 34.2997 18.7483C33.1624 17.9048 32.471 16.7166 32.2253 15.1837L36.0192 14.6122C36.1739 15.3016 36.515 15.8413 37.0427 16.2313C37.5795 16.6213 38.2573 16.8163 39.0762 16.8163C39.7494 16.8163 40.268 16.6893 40.6319 16.4354C40.9959 16.1723 41.1778 15.8095 41.1778 15.3469C41.1778 15.0567 41.105 14.8254 40.9595 14.6531C40.8139 14.4717 40.4864 14.2948 39.9769 14.1224C39.4765 13.9501 38.694 13.7234 37.6296 13.4422C36.4286 13.1338 35.4688 12.7891 34.75 12.4082C34.0313 12.0272 33.5127 11.5737 33.1943 11.0476C32.8758 10.5125 32.7166 9.86848 32.7166 9.11565C32.7166 8.17234 32.9577 7.35601 33.4399 6.66667C33.9221 5.96825 34.5999 5.43311 35.4733 5.06122C36.3558 4.68027 37.393 4.4898 38.5849 4.4898C39.7403 4.4898 40.7639 4.66667 41.6555 5.02041C42.5471 5.37415 43.2658 5.87755 43.8117 6.53061C44.3667 7.18367 44.7079 7.95465 44.8352 8.84354L41.0413 9.52381C40.9777 8.97959 40.7411 8.54875 40.3317 8.23129C39.9223 7.91383 39.3673 7.72789 38.6667 7.67347C37.9844 7.62812 37.434 7.71882 37.0154 7.94558C36.606 8.17234 36.4013 8.49887 36.4013 8.92517C36.4013 9.17914 36.4878 9.39229 36.6606 9.56463C36.8426 9.73696 37.2111 9.91383 37.766 10.0952C38.3301 10.2766 39.1853 10.5125 40.3317 10.8027C41.4508 11.093 42.3469 11.4331 43.0202 11.8231C43.7025 12.2041 44.1984 12.6667 44.5077 13.2109C44.817 13.746 44.9717 14.3946 44.9717 15.1565C44.9717 16.6621 44.4258 17.8458 43.3341 18.7075C42.2423 19.5692 40.732 20 38.8032 20Z" fill="white"/>
<path d="M65.7119 19.5918V10.9116C65.7119 9.94104 65.4799 9.18821 65.0159 8.65306C64.561 8.10884 63.9287 7.83674 63.119 7.83674C62.6004 7.83674 62.15 7.95918 61.7679 8.20408C61.3858 8.43991 61.0855 8.77551 60.8672 9.21089C60.6579 9.63719 60.5533 10.1315 60.5533 10.6939L58.9975 9.65986C58.9975 8.65306 59.2341 7.76417 59.7072 6.9932C60.1894 6.22222 60.8308 5.62358 61.6314 5.19728C62.4412 4.7619 63.3373 4.54422 64.3199 4.54422C66.0031 4.54422 67.2722 5.04308 68.1275 6.04082C68.9918 7.02948 69.4239 8.32653 69.4239 9.93197V19.5918H65.7119ZM47.9434 19.5918V4.89796H51.2187V9.76871H51.6827V19.5918H47.9434ZM56.8413 19.5918V10.9116C56.8413 9.94104 56.6093 9.18821 56.1453 8.65306C55.6904 8.10884 55.0581 7.83674 54.2483 7.83674C53.475 7.83674 52.8518 8.10431 52.3787 8.63945C51.9147 9.16553 51.6827 9.85034 51.6827 10.6939L50.1269 9.60544C50.1269 8.64399 50.368 7.78231 50.8502 7.02041C51.3324 6.2585 51.9784 5.65533 52.7881 5.21088C53.6069 4.76644 54.5213 4.54422 55.5312 4.54422C56.6866 4.54422 57.6328 4.78912 58.3698 5.27891C59.1158 5.76871 59.6662 6.42177 60.0211 7.23809C60.3759 8.05442 60.5533 8.95238 60.5533 9.93197V19.5918H56.8413Z" fill="white"/>
<path d="M79.5569 20C78.0466 20 76.7138 19.678 75.5583 19.034C74.4119 18.381 73.5112 17.4875 72.8562 16.3537C72.2102 15.2109 71.8872 13.9048 71.8872 12.4354C71.8872 10.8299 72.2057 9.43311 72.8425 8.2449C73.4794 7.05669 74.3574 6.13605 75.4764 5.48299C76.5955 4.82086 77.8829 4.4898 79.3386 4.4898C80.8852 4.4898 82.1999 4.85261 83.2826 5.57823C84.3652 6.30385 85.1659 7.32426 85.6845 8.63945C86.203 9.95465 86.385 11.5011 86.2303 13.2789H82.5593V11.9184C82.5593 10.4218 82.3182 9.34694 81.836 8.69388C81.3629 8.03174 80.585 7.70068 79.5023 7.70068C78.2377 7.70068 77.3051 8.08617 76.7047 8.85714C76.1133 9.61905 75.8176 10.7483 75.8176 12.2449C75.8176 13.6145 76.1133 14.6757 76.7047 15.4286C77.3051 16.1723 78.1831 16.5442 79.3386 16.5442C80.0664 16.5442 80.6896 16.3855 81.2082 16.068C81.7268 15.7506 82.1226 15.2925 82.3955 14.6939L86.1075 15.7551C85.5525 17.0975 84.6746 18.1406 83.4736 18.8844C82.2818 19.6281 80.9762 20 79.5569 20ZM74.6712 13.2789V10.5306H84.4426V13.2789H74.6712Z" fill="white"/>
<path d="M98.1551 19.5918C97.1362 19.7823 96.1354 19.8639 95.1528 19.8367C94.1793 19.8186 93.3059 19.6508 92.5325 19.3333C91.7683 19.0068 91.186 18.4853 90.7857 17.7687C90.4218 17.0975 90.2307 16.4172 90.2125 15.7279C90.1943 15.0295 90.1852 14.2404 90.1852 13.3605V0.816326H93.8972V13.1429C93.8972 13.7143 93.9018 14.2313 93.9109 14.6939C93.9291 15.1474 94.0246 15.5102 94.1975 15.7823C94.525 16.2993 95.0482 16.5805 95.7669 16.6259C96.4856 16.6712 97.2817 16.6349 98.1551 16.517V19.5918ZM87.6742 7.7551V4.89796H98.1551V7.7551H87.6742Z" fill="white"/>
<path d="M121.211 19.5918C120.192 19.7823 119.192 19.8639 118.209 19.8367C117.235 19.8186 116.362 19.6508 115.589 19.3333C114.824 19.0068 114.242 18.4853 113.842 17.7687C113.478 17.0975 113.287 16.4172 113.269 15.7279C113.25 15.0295 113.241 14.2404 113.241 13.3605V0.816326H116.953V13.1429C116.953 13.7143 116.958 14.2313 116.967 14.6939C116.985 15.1474 117.081 15.5102 117.254 15.7823C117.581 16.2993 118.104 16.5805 118.823 16.6259C119.542 16.6712 120.338 16.6349 121.211 16.517V19.5918ZM110.73 7.7551V4.89796H121.211V7.7551H110.73Z" fill="white"/>
<path d="M124.496 19.5918V4.89796H127.771V8.4898L127.416 8.02721C127.607 7.51927 127.862 7.05669 128.18 6.63946C128.499 6.22222 128.89 5.87755 129.354 5.60544C129.709 5.38776 130.096 5.21995 130.514 5.10204C130.933 4.97506 131.365 4.89796 131.811 4.87075C132.256 4.83447 132.702 4.84354 133.148 4.89796V8.35374C132.739 8.22676 132.261 8.18594 131.715 8.23129C131.178 8.26757 130.692 8.39002 130.255 8.59864C129.818 8.79819 129.45 9.06576 129.149 9.40136C128.849 9.72789 128.622 10.1179 128.467 10.5714C128.312 11.0159 128.235 11.5193 128.235 12.0816V19.5918H124.496Z" fill="white"/>
<path d="M139.545 20C138.49 20 137.593 19.8005 136.856 19.4014C136.129 18.9932 135.574 18.4535 135.191 17.7823C134.818 17.102 134.632 16.3537 134.632 15.5374C134.632 14.8571 134.737 14.2358 134.946 13.6735C135.155 13.1111 135.492 12.6168 135.956 12.1905C136.429 11.7551 137.061 11.3923 137.853 11.102C138.399 10.9025 139.049 10.7256 139.804 10.5714C140.559 10.4172 141.415 10.2721 142.37 10.1361C143.325 9.99093 144.376 9.8322 145.522 9.65986L144.185 10.3946C144.185 9.52381 143.976 8.88435 143.557 8.47619C143.139 8.06803 142.438 7.86395 141.456 7.86395C140.91 7.86395 140.341 7.99546 139.75 8.2585C139.158 8.52154 138.744 8.98866 138.508 9.65986L135.151 8.59864C135.524 7.38322 136.224 6.39456 137.252 5.63265C138.28 4.87075 139.681 4.4898 141.456 4.4898C142.757 4.4898 143.912 4.68934 144.922 5.08843C145.932 5.48753 146.696 6.17687 147.215 7.15646C147.506 7.70068 147.679 8.2449 147.733 8.78912C147.788 9.33333 147.815 9.94104 147.815 10.6122V19.5918H144.567V16.5714L145.031 17.1973C144.312 18.1859 143.534 18.9025 142.697 19.3469C141.869 19.7823 140.819 20 139.545 20ZM140.336 17.0884C141.019 17.0884 141.592 16.9705 142.056 16.7347C142.529 16.4898 142.902 16.2132 143.175 15.9048C143.457 15.5964 143.648 15.3379 143.748 15.1293C143.939 14.7302 144.048 14.2676 144.076 13.7415C144.112 13.2063 144.13 12.7619 144.13 12.4082L145.222 12.6803C144.121 12.8617 143.23 13.0159 142.547 13.1429C141.865 13.2608 141.314 13.3696 140.896 13.4694C140.477 13.5692 140.109 13.678 139.791 13.7959C139.427 13.941 139.131 14.0998 138.904 14.2721C138.685 14.4354 138.521 14.6168 138.412 14.8163C138.312 15.0159 138.262 15.2381 138.262 15.483C138.262 15.8186 138.344 16.1088 138.508 16.3537C138.681 16.5896 138.922 16.771 139.231 16.898C139.54 17.0249 139.909 17.0884 140.336 17.0884Z" fill="white"/>
<path d="M157.341 20C155.985 20 154.798 19.6599 153.779 18.9796C152.76 18.2993 151.964 17.3741 151.391 16.2041C150.827 15.034 150.545 13.7143 150.545 12.2449C150.545 10.7483 150.831 9.4195 151.404 8.2585C151.987 7.08843 152.801 6.1678 153.847 5.4966C154.894 4.8254 156.122 4.4898 157.532 4.4898C158.933 4.4898 160.111 4.82993 161.067 5.5102C162.022 6.19048 162.745 7.11565 163.237 8.28571C163.728 9.45578 163.973 10.7755 163.973 12.2449C163.973 13.7143 163.723 15.034 163.223 16.2041C162.732 17.3741 161.995 18.2993 161.012 18.9796C160.029 19.6599 158.806 20 157.341 20ZM157.941 16.7075C158.769 16.7075 159.429 16.5215 159.92 16.1497C160.421 15.7778 160.78 15.2562 160.998 14.585C161.217 13.9138 161.326 13.1338 161.326 12.2449C161.326 11.356 161.217 10.576 160.998 9.90476C160.78 9.23356 160.43 8.71202 159.948 8.34014C159.474 7.96825 158.851 7.78231 158.078 7.78231C157.25 7.78231 156.568 7.9864 156.031 8.39456C155.503 8.79365 155.112 9.33333 154.857 10.0136C154.602 10.6848 154.475 11.4286 154.475 12.2449C154.475 13.0703 154.598 13.8231 154.844 14.5034C155.089 15.1746 155.467 15.7098 155.976 16.1088C156.486 16.5079 157.141 16.7075 157.941 16.7075ZM161.326 19.5918V9.52381H160.862V0H164.601V19.5918H161.326Z" fill="white"/>
<path d="M175.273 20C173.763 20 172.43 19.678 171.275 19.034C170.128 18.381 169.228 17.4875 168.573 16.3537C167.927 15.2109 167.604 13.9048 167.604 12.4354C167.604 10.8299 167.922 9.43311 168.559 8.2449C169.196 7.05669 170.074 6.13605 171.193 5.48299C172.312 4.82086 173.599 4.4898 175.055 4.4898C176.602 4.4898 177.916 4.85261 178.999 5.57823C180.082 6.30385 180.882 7.32426 181.401 8.63945C181.919 9.95465 182.101 11.5011 181.947 13.2789H178.276V11.9184C178.276 10.4218 178.035 9.34694 177.552 8.69388C177.079 8.03174 176.301 7.70068 175.219 7.70068C173.954 7.70068 173.021 8.08617 172.421 8.85714C171.83 9.61905 171.534 10.7483 171.534 12.2449C171.534 13.6145 171.83 14.6757 172.421 15.4286C173.021 16.1723 173.899 16.5442 175.055 16.5442C175.783 16.5442 176.406 16.3855 176.925 16.068C177.443 15.7506 177.839 15.2925 178.112 14.6939L181.824 15.7551C181.269 17.0975 180.391 18.1406 179.19 18.8844C177.998 19.6281 176.693 20 175.273 20ZM170.388 13.2789V10.5306H180.159V13.2789H170.388Z" fill="white"/>
<ellipse cx="104.446" cy="11.4286" rx="2.72942" ry="2.72109" fill="#DE3C4F"/>
</svg>
